solid Test_Foot-m
   facet normal 1.050711e-016 -1.000000e+000 0.000000e+000
      outer loop
         vertex -6.604000e-002 -3.810000e-002 -4.826000e-002
         vertex -3.810000e-002 -3.810000e-002 -4.826000e-002
         vertex -6.604000e-002 -3.810000e-002 4.826000e-002
      endloop
   endfacet
   facet normal 1.050711e-016 -1.000000e+000 0.000000e+000
      outer loop
         vertex -6.604000e-002 -3.810000e-002 4.826000e-002
         vertex -3.810000e-002 -3.810000e-002 -4.826000e-002
         vertex -3.810000e-002 -3.810000e-002 -1.270000e-002
      endloop
   endfacet
   facet normal 1.050711e-016 -1.000000e+000 0.000000e+000
      outer loop
         vertex -3.810000e-002 -3.810000e-002 4.826000e-002
         vertex -6.604000e-002 -3.810000e-002 4.826000e-002
         vertex -3.810000e-002 -3.810000e-002 1.270000e-002
      endloop
   endfacet
   facet normal 1.050711e-016 -1.000000e+000 0.000000e+000
      outer loop
         vertex -3.810000e-002 -3.810000e-002 1.270000e-002
         vertex -6.604000e-002 -3.810000e-002 4.826000e-002
         vertex -3.810000e-002 -3.810000e-002 -1.270000e-002
      endloop
   endfacet
   facet normal 1.050711e-016 -1.000000e+000 0.000000e+000
      outer loop
         vertex -3.810000e-002 -3.810000e-002 1.270000e-002
         vertex -3.810000e-002 -3.810000e-002 -1.270000e-002
         vertex 0.000000e+000 -3.810000e-002 1.270000e-002
      endloop
   endfacet
   facet normal 1.050711e-016 -1.000000e+000 0.000000e+000
      outer loop
         vertex 0.000000e+000 -3.810000e-002 1.270000e-002
         vertex -3.810000e-002 -3.810000e-002 -1.270000e-002
         vertex -6.998856e-018 -3.810000e-002 -1.270000e-002
      endloop
   endfacet
   facet normal 0.000000e+000 0.000000e+000 -1.000000e+000
      outer loop
         vertex -3.810000e-002 -2.332952e-018 -4.826000e-002
         vertex -3.810000e-002 -3.810000e-002 -4.826000e-002
         vertex -6.604000e-002 -3.810000e-002 -4.826000e-002
      endloop
   endfacet
   facet normal 0.000000e+000 0.000000e+000 -1.000000e+000
      outer loop
         vertex 4.665904e-018 3.810000e-002 -4.826000e-002
         vertex -6.615995e-003 3.752118e-002 -4.826000e-002
         vertex -5.828965e-002 2.129690e-001 -4.826000e-002
      endloop
   endfacet
   facet normal 0.000000e+000 0.000000e+000 -1.000000e+000
      outer loop
         vertex -5.828965e-002 2.129690e-001 -4.826000e-002
         vertex -6.615995e-003 3.752118e-002 -4.826000e-002
         vertex -1.303097e-002 3.580229e-002 -4.826000e-002
      endloop
   endfacet
   facet normal 0.000000e+000 0.000000e+000 -1.000000e+000
      outer loop
         vertex -5.828965e-002 2.129690e-001 -4.826000e-002
         vertex -1.303097e-002 3.580229e-002 -4.826000e-002
         vertex -7.997656e-002 2.286000e-001 -4.826000e-002
      endloop
   endfacet
   facet normal 0.000000e+000 0.000000e+000 -1.000000e+000
      outer loop
         vertex -7.997656e-002 2.286000e-001 -4.826000e-002
         vertex -1.303097e-002 3.580229e-002 -4.826000e-002
         vertex -8.890000e-002 2.286000e-001 -4.826000e-002
      endloop
   endfacet
   facet normal 0.000000e+000 0.000000e+000 -1.000000e+000
      outer loop
         vertex -8.890000e-002 2.286000e-001 -4.826000e-002
         vertex -1.303097e-002 3.580229e-002 -4.826000e-002
         vertex -1.905000e-002 3.299557e-002 -4.826000e-002
      endloop
   endfacet
   facet normal 0.000000e+000 0.000000e+000 -1.000000e+000
      outer loop
         vertex -8.890000e-002 2.286000e-001 -4.826000e-002
         vertex -1.905000e-002 3.299557e-002 -4.826000e-002
         vertex -2.449021e-002 2.918629e-002 -4.826000e-002
      endloop
   endfacet
   facet normal 0.000000e+000 0.000000e+000 -1.000000e+000
      outer loop
         vertex -3.580229e-002 1.303097e-002 -4.826000e-002
         vertex -8.890000e-002 -1.524000e-002 -4.826000e-002
         vertex -3.299557e-002 1.905000e-002 -4.826000e-002
      endloop
   endfacet
   facet normal 0.000000e+000 0.000000e+000 -1.000000e+000
      outer loop
         vertex -3.299557e-002 1.905000e-002 -4.826000e-002
         vertex -8.890000e-002 -1.524000e-002 -4.826000e-002
         vertex -8.890000e-002 2.286000e-001 -4.826000e-002
      endloop
   endfacet
   facet normal 0.000000e+000 0.000000e+000 -1.000000e+000
      outer loop
         vertex -3.299557e-002 1.905000e-002 -4.826000e-002
         vertex -8.890000e-002 2.286000e-001 -4.826000e-002
         vertex -2.918629e-002 2.449021e-002 -4.826000e-002
      endloop
   endfacet
   facet normal 0.000000e+000 0.000000e+000 -1.000000e+000
      outer loop
         vertex -2.918629e-002 2.449021e-002 -4.826000e-002
         vertex -8.890000e-002 2.286000e-001 -4.826000e-002
         vertex -2.449021e-002 2.918629e-002 -4.826000e-002
      endloop
   endfacet
   facet normal 0.000000e+000 0.000000e+000 -1.000000e+000
      outer loop
         vertex -7.997656e-002 2.286000e-001 -4.826000e-002
         vertex -7.642189e-002 2.283219e-001 -4.826000e-002
         vertex -5.828965e-002 2.129690e-001 -4.826000e-002
      endloop
   endfacet
   facet normal 0.000000e+000 0.000000e+000 -1.000000e+000
      outer loop
         vertex -5.828965e-002 2.129690e-001 -4.826000e-002
         vertex -7.642189e-002 2.283219e-001 -4.826000e-002
         vertex -7.295370e-002 2.274945e-001 -4.826000e-002
      endloop
   endfacet
   facet normal 0.000000e+000 0.000000e+000 -1.000000e+000
      outer loop
         vertex -5.828965e-002 2.129690e-001 -4.826000e-002
         vertex -7.295370e-002 2.274945e-001 -4.826000e-002
         vertex -6.965636e-002 2.261379e-001 -4.826000e-002
      endloop
   endfacet
   facet normal 0.000000e+000 0.000000e+000 -1.000000e+000
      outer loop
         vertex -3.810000e-002 -2.332952e-018 -4.826000e-002
         vertex -7.747000e-002 -3.503734e-002 -4.826000e-002
         vertex -8.073413e-002 -3.275178e-002 -4.826000e-002
      endloop
   endfacet
   facet normal 0.000000e+000 0.000000e+000 -1.000000e+000
      outer loop
         vertex -8.073413e-002 -3.275178e-002 -4.826000e-002
         vertex -8.355178e-002 -2.993413e-002 -4.826000e-002
         vertex -3.810000e-002 -2.332952e-018 -4.826000e-002
      endloop
   endfacet
   facet normal 0.000000e+000 0.000000e+000 -1.000000e+000
      outer loop
         vertex -3.810000e-002 -2.332952e-018 -4.826000e-002
         vertex -8.355178e-002 -2.993413e-002 -4.826000e-002
         vertex -8.583734e-002 -2.667000e-002 -4.826000e-002
      endloop
   endfacet
   facet normal 0.000000e+000 0.000000e+000 -1.000000e+000
      outer loop
         vertex -3.810000e-002 -2.332952e-018 -4.826000e-002
         vertex -8.583734e-002 -2.667000e-002 -4.826000e-002
         vertex -8.752137e-002 -2.305858e-002 -4.826000e-002
      endloop
   endfacet
   facet normal 0.000000e+000 0.000000e+000 -1.000000e+000
      outer loop
         vertex -3.580229e-002 1.303097e-002 -4.826000e-002
         vertex -3.752118e-002 6.615995e-003 -4.826000e-002
         vertex -8.890000e-002 -1.524000e-002 -4.826000e-002
      endloop
   endfacet
   facet normal 0.000000e+000 0.000000e+000 -1.000000e+000
      outer loop
         vertex -8.890000e-002 -1.524000e-002 -4.826000e-002
         vertex -3.752118e-002 6.615995e-003 -4.826000e-002
         vertex -3.810000e-002 -2.332952e-018 -4.826000e-002
      endloop
   endfacet
   facet normal 0.000000e+000 0.000000e+000 -1.000000e+000
      outer loop
         vertex -8.890000e-002 -1.524000e-002 -4.826000e-002
         vertex -3.810000e-002 -2.332952e-018 -4.826000e-002
         vertex -8.855271e-002 -1.920960e-002 -4.826000e-002
      endloop
   endfacet
   facet normal 0.000000e+000 0.000000e+000 -1.000000e+000
      outer loop
         vertex -8.855271e-002 -1.920960e-002 -4.826000e-002
         vertex -3.810000e-002 -2.332952e-018 -4.826000e-002
         vertex -8.752137e-002 -2.305858e-002 -4.826000e-002
      endloop
   endfacet
   facet normal 0.000000e+000 0.000000e+000 -1.000000e+000
      outer loop
         vertex -6.604000e-002 -3.810000e-002 -4.826000e-002
         vertex -7.000960e-002 -3.775271e-002 -4.826000e-002
         vertex -3.810000e-002 -2.332952e-018 -4.826000e-002
      endloop
   endfacet
   facet normal 0.000000e+000 0.000000e+000 -1.000000e+000
      outer loop
         vertex -3.810000e-002 -2.332952e-018 -4.826000e-002
         vertex -7.000960e-002 -3.775271e-002 -4.826000e-002
         vertex -7.385858e-002 -3.672137e-002 -4.826000e-002
      endloop
   endfacet
   facet normal 0.000000e+000 0.000000e+000 -1.000000e+000
      outer loop
         vertex -3.810000e-002 -2.332952e-018 -4.826000e-002
         vertex -7.385858e-002 -3.672137e-002 -4.826000e-002
         vertex -7.747000e-002 -3.503734e-002 -4.826000e-002
      endloop
   endfacet
   facet normal 0.000000e+000 0.000000e+000 -1.000000e+000
      outer loop
         vertex -6.965636e-002 2.261379e-001 -4.826000e-002
         vertex -6.661008e-002 2.242850e-001 -4.826000e-002
         vertex -5.828965e-002 2.129690e-001 -4.826000e-002
      endloop
   endfacet
   facet normal 0.000000e+000 0.000000e+000 -1.000000e+000
      outer loop
         vertex -5.828965e-002 2.129690e-001 -4.826000e-002
         vertex -6.661008e-002 2.242850e-001 -4.826000e-002
         vertex -6.388897e-002 2.219810e-001 -4.826000e-002
      endloop
   endfacet
   facet normal 0.000000e+000 0.000000e+000 -1.000000e+000
      outer loop
         vertex -5.828965e-002 2.129690e-001 -4.826000e-002
         vertex -6.388897e-002 2.219810e-001 -4.826000e-002
         vertex -5.967753e-002 2.162533e-001 -4.826000e-002
      endloop
   endfacet
   facet normal 0.000000e+000 0.000000e+000 -1.000000e+000
      outer loop
         vertex -5.967753e-002 2.162533e-001 -4.826000e-002
         vertex -6.388897e-002 2.219810e-001 -4.826000e-002
         vertex -6.155923e-002 2.192819e-001 -4.826000e-002
      endloop
   endfacet
   facet normal 5.807913e-002 9.983119e-001 0.000000e+000
      outer loop
         vertex 1.166476e-017 3.810000e-002 -1.270000e-002
         vertex 1.166476e-017 3.810000e-002 1.270000e-002
         vertex 6.615995e-003 3.752118e-002 1.270000e-002
      endloop
   endfacet
   facet normal 1.161583e-001 9.932307e-001 0.000000e+000
      outer loop
         vertex 1.166476e-017 3.810000e-002 -1.270000e-002
         vertex 6.615995e-003 3.752118e-002 1.270000e-002
         vertex 6.615995e-003 3.752118e-002 -1.270000e-002
      endloop
   endfacet
   facet normal 2.305519e-001 9.730600e-001 0.000000e+000
      outer loop
         vertex 6.615995e-003 3.752118e-002 -1.270000e-002
         vertex 6.615995e-003 3.752118e-002 1.270000e-002
         vertex 1.303097e-002 3.580229e-002 1.270000e-002
      endloop
   endfacet
   facet normal 2.868663e-001 9.579706e-001 0.000000e+000
      outer loop
         vertex 6.615995e-003 3.752118e-002 -1.270000e-002
         vertex 1.303097e-002 3.580229e-002 1.270000e-002
         vertex 1.303097e-002 3.580229e-002 -1.270000e-002
      endloop
   endfacet
   facet normal 3.960194e-001 9.182422e-001 0.000000e+000
      outer loop
         vertex 1.303097e-002 3.580229e-002 -1.270000e-002
         vertex 1.303097e-002 3.580229e-002 1.270000e-002
         vertex 1.905000e-002 3.299557e-002 1.270000e-002
      endloop
   endfacet
   facet normal 4.488580e-001 8.936031e-001 0.000000e+000
      outer loop
         vertex 1.303097e-002 3.580229e-002 -1.270000e-002
         vertex 1.905000e-002 3.299557e-002 1.270000e-002
         vertex 1.905000e-002 3.299557e-002 -1.270000e-002
      endloop
   endfacet
   facet normal 5.494540e-001 8.355240e-001 0.000000e+000
      outer loop
         vertex 1.905000e-002 3.299557e-002 -1.270000e-002
         vertex 1.905000e-002 3.299557e-002 1.270000e-002
         vertex 2.449021e-002 2.918629e-002 1.270000e-002
      endloop
   endfacet
   facet normal 5.972114e-001 8.020838e-001 0.000000e+000
      outer loop
         vertex 1.905000e-002 3.299557e-002 -1.270000e-002
         vertex 2.449021e-002 2.918629e-002 1.270000e-002
         vertex 2.449021e-002 2.918629e-002 -1.270000e-002
      endloop
   endfacet
   facet normal 6.861938e-001 7.274188e-001 0.000000e+000
      outer loop
         vertex 2.449021e-002 2.918629e-002 -1.270000e-002
         vertex 2.449021e-002 2.918629e-002 1.270000e-002
         vertex 2.918629e-002 2.449021e-002 1.270000e-002
      endloop
   endfacet
   facet normal 7.274188e-001 6.861938e-001 0.000000e+000
      outer loop
         vertex 2.449021e-002 2.918629e-002 -1.270000e-002
         vertex 2.918629e-002 2.449021e-002 1.270000e-002
         vertex 2.918629e-002 2.449021e-002 -1.270000e-002
      endloop
   endfacet
   facet normal 8.020838e-001 5.972114e-001 0.000000e+000
      outer loop
         vertex 2.918629e-002 2.449021e-002 -1.270000e-002
         vertex 2.918629e-002 2.449021e-002 1.270000e-002
         vertex 3.299557e-002 1.905000e-002 1.270000e-002
      endloop
   endfacet
   facet normal 8.355240e-001 5.494540e-001 0.000000e+000
      outer loop
         vertex 2.918629e-002 2.449021e-002 -1.270000e-002
         vertex 3.299557e-002 1.905000e-002 1.270000e-002
         vertex 3.299557e-002 1.905000e-002 -1.270000e-002
      endloop
   endfacet
   facet normal 8.936031e-001 4.488580e-001 0.000000e+000
      outer loop
         vertex 3.299557e-002 1.905000e-002 -1.270000e-002
         vertex 3.299557e-002 1.905000e-002 1.270000e-002
         vertex 3.580229e-002 1.303097e-002 1.270000e-002
      endloop
   endfacet
   facet normal 9.182422e-001 3.960194e-001 0.000000e+000
      outer loop
         vertex 3.299557e-002 1.905000e-002 -1.270000e-002
         vertex 3.580229e-002 1.303097e-002 1.270000e-002
         vertex 3.580229e-002 1.303097e-002 -1.270000e-002
      endloop
   endfacet
   facet normal 9.579706e-001 2.868663e-001 0.000000e+000
      outer loop
         vertex 3.580229e-002 1.303097e-002 -1.270000e-002
         vertex 3.580229e-002 1.303097e-002 1.270000e-002
         vertex 3.752118e-002 6.615995e-003 1.270000e-002
      endloop
   endfacet
   facet normal 9.730600e-001 2.305519e-001 0.000000e+000
      outer loop
         vertex 3.580229e-002 1.303097e-002 -1.270000e-002
         vertex 3.752118e-002 6.615995e-003 1.270000e-002
         vertex 3.752118e-002 6.615995e-003 -1.270000e-002
      endloop
   endfacet
   facet normal 9.932307e-001 1.161583e-001 0.000000e+000
      outer loop
         vertex 3.752118e-002 6.615995e-003 -1.270000e-002
         vertex 3.752118e-002 6.615995e-003 1.270000e-002
         vertex 3.810000e-002 -9.331808e-018 1.270000e-002
      endloop
   endfacet
   facet normal 9.983119e-001 5.807913e-002 0.000000e+000
      outer loop
         vertex 3.752118e-002 6.615995e-003 -1.270000e-002
         vertex 3.810000e-002 -9.331808e-018 1.270000e-002
         vertex 3.810000e-002 -9.331808e-018 -1.270000e-002
      endloop
   endfacet
   facet normal 9.983119e-001 -5.807913e-002 0.000000e+000
      outer loop
         vertex 3.810000e-002 -9.331808e-018 -1.270000e-002
         vertex 3.810000e-002 -9.331808e-018 1.270000e-002
         vertex 3.752118e-002 -6.615995e-003 1.270000e-002
      endloop
   endfacet
   facet normal 9.932307e-001 -1.161583e-001 0.000000e+000
      outer loop
         vertex 3.810000e-002 -9.331808e-018 -1.270000e-002
         vertex 3.752118e-002 -6.615995e-003 1.270000e-002
         vertex 3.752118e-002 -6.615995e-003 -1.270000e-002
      endloop
   endfacet
   facet normal 9.730600e-001 -2.305519e-001 0.000000e+000
      outer loop
         vertex 3.752118e-002 -6.615995e-003 -1.270000e-002
         vertex 3.752118e-002 -6.615995e-003 1.270000e-002
         vertex 3.580229e-002 -1.303097e-002 1.270000e-002
      endloop
   endfacet
   facet normal 9.579706e-001 -2.868663e-001 0.000000e+000
      outer loop
         vertex 3.752118e-002 -6.615995e-003 -1.270000e-002
         vertex 3.580229e-002 -1.303097e-002 1.270000e-002
         vertex 3.580229e-002 -1.303097e-002 -1.270000e-002
      endloop
   endfacet
   facet normal 9.182422e-001 -3.960194e-001 0.000000e+000
      outer loop
         vertex 3.580229e-002 -1.303097e-002 -1.270000e-002
         vertex 3.580229e-002 -1.303097e-002 1.270000e-002
         vertex 3.299557e-002 -1.905000e-002 1.270000e-002
      endloop
   endfacet
   facet normal 8.936031e-001 -4.488580e-001 0.000000e+000
      outer loop
         vertex 3.580229e-002 -1.303097e-002 -1.270000e-002
         vertex 3.299557e-002 -1.905000e-002 1.270000e-002
         vertex 3.299557e-002 -1.905000e-002 -1.270000e-002
      endloop
   endfacet
   facet normal 8.355240e-001 -5.494540e-001 0.000000e+000
      outer loop
         vertex 3.299557e-002 -1.905000e-002 -1.270000e-002
         vertex 3.299557e-002 -1.905000e-002 1.270000e-002
         vertex 2.918629e-002 -2.449021e-002 1.270000e-002
      endloop
   endfacet
   facet normal 8.020838e-001 -5.972114e-001 0.000000e+000
      outer loop
         vertex 3.299557e-002 -1.905000e-002 -1.270000e-002
         vertex 2.918629e-002 -2.449021e-002 1.270000e-002
         vertex 2.918629e-002 -2.449021e-002 -1.270000e-002
      endloop
   endfacet
   facet normal 7.274188e-001 -6.861938e-001 0.000000e+000
      outer loop
         vertex 2.918629e-002 -2.449021e-002 -1.270000e-002
         vertex 2.918629e-002 -2.449021e-002 1.270000e-002
         vertex 2.449021e-002 -2.918629e-002 1.270000e-002
      endloop
   endfacet
   facet normal 6.861938e-001 -7.274188e-001 0.000000e+000
      outer loop
         vertex 2.918629e-002 -2.449021e-002 -1.270000e-002
         vertex 2.449021e-002 -2.918629e-002 1.270000e-002
         vertex 2.449021e-002 -2.918629e-002 -1.270000e-002
      endloop
   endfacet
   facet normal 5.972114e-001 -8.020838e-001 0.000000e+000
      outer loop
         vertex 2.449021e-002 -2.918629e-002 -1.270000e-002
         vertex 2.449021e-002 -2.918629e-002 1.270000e-002
         vertex 1.905000e-002 -3.299557e-002 1.270000e-002
      endloop
   endfacet
   facet normal 5.494540e-001 -8.355240e-001 0.000000e+000
      outer loop
         vertex 2.449021e-002 -2.918629e-002 -1.270000e-002
         vertex 1.905000e-002 -3.299557e-002 1.270000e-002
         vertex 1.905000e-002 -3.299557e-002 -1.270000e-002
      endloop
   endfacet
   facet normal 4.488580e-001 -8.936031e-001 0.000000e+000
      outer loop
         vertex 1.905000e-002 -3.299557e-002 -1.270000e-002
         vertex 1.905000e-002 -3.299557e-002 1.270000e-002
         vertex 1.303097e-002 -3.580229e-002 1.270000e-002
      endloop
   endfacet
   facet normal 3.960194e-001 -9.182422e-001 0.000000e+000
      outer loop
         vertex 1.905000e-002 -3.299557e-002 -1.270000e-002
         vertex 1.303097e-002 -3.580229e-002 1.270000e-002
         vertex 1.303097e-002 -3.580229e-002 -1.270000e-002
      endloop
   endfacet
   facet normal 2.868663e-001 -9.579706e-001 0.000000e+000
      outer loop
         vertex 1.303097e-002 -3.580229e-002 -1.270000e-002
         vertex 1.303097e-002 -3.580229e-002 1.270000e-002
         vertex 6.615995e-003 -3.752118e-002 1.270000e-002
      endloop
   endfacet
   facet normal 2.305519e-001 -9.730600e-001 0.000000e+000
      outer loop
         vertex 1.303097e-002 -3.580229e-002 -1.270000e-002
         vertex 6.615995e-003 -3.752118e-002 1.270000e-002
         vertex 6.615995e-003 -3.752118e-002 -1.270000e-002
      endloop
   endfacet
   facet normal 1.161583e-001 -9.932307e-001 0.000000e+000
      outer loop
         vertex 6.615995e-003 -3.752118e-002 -1.270000e-002
         vertex 6.615995e-003 -3.752118e-002 1.270000e-002
         vertex -6.998856e-018 -3.810000e-002 1.270000e-002
      endloop
   endfacet
   facet normal 5.807913e-002 -9.983119e-001 0.000000e+000
      outer loop
         vertex 6.615995e-003 -3.752118e-002 -1.270000e-002
         vertex -6.998856e-018 -3.810000e-002 1.270000e-002
         vertex -6.998856e-018 -3.810000e-002 -1.270000e-002
      endloop
   endfacet
   facet normal -5.807913e-002 -9.983119e-001 0.000000e+000
      outer loop
         vertex -6.604000e-002 -3.810000e-002 -4.826000e-002
         vertex -6.604000e-002 -3.810000e-002 4.826000e-002
         vertex -7.000960e-002 -3.775271e-002 4.826000e-002
      endloop
   endfacet
   facet normal -1.161583e-001 -9.932307e-001 0.000000e+000
      outer loop
         vertex -6.604000e-002 -3.810000e-002 -4.826000e-002
         vertex -7.000960e-002 -3.775271e-002 4.826000e-002
         vertex -7.000960e-002 -3.775271e-002 -4.826000e-002
      endloop
   endfacet
   facet normal -2.305519e-001 -9.730600e-001 0.000000e+000
      outer loop
         vertex -7.000960e-002 -3.775271e-002 -4.826000e-002
         vertex -7.000960e-002 -3.775271e-002 4.826000e-002
         vertex -7.385858e-002 -3.672137e-002 4.826000e-002
      endloop
   endfacet
   facet normal -2.868663e-001 -9.579706e-001 0.000000e+000
      outer loop
         vertex -7.000960e-002 -3.775271e-002 -4.826000e-002
         vertex -7.385858e-002 -3.672137e-002 4.826000e-002
         vertex -7.385858e-002 -3.672137e-002 -4.826000e-002
      endloop
   endfacet
   facet normal -3.960194e-001 -9.182422e-001 0.000000e+000
      outer loop
         vertex -7.385858e-002 -3.672137e-002 -4.826000e-002
         vertex -7.385858e-002 -3.672137e-002 4.826000e-002
         vertex -7.747000e-002 -3.503734e-002 4.826000e-002
      endloop
   endfacet
   facet normal -4.488580e-001 -8.936031e-001 0.000000e+000
      outer loop
         vertex -7.385858e-002 -3.672137e-002 -4.826000e-002
         vertex -7.747000e-002 -3.503734e-002 4.826000e-002
         vertex -7.747000e-002 -3.503734e-002 -4.826000e-002
      endloop
   endfacet
   facet normal -5.494540e-001 -8.355240e-001 0.000000e+000
      outer loop
         vertex -7.747000e-002 -3.503734e-002 -4.826000e-002
         vertex -7.747000e-002 -3.503734e-002 4.826000e-002
         vertex -8.073413e-002 -3.275178e-002 4.826000e-002
      endloop
   endfacet
   facet normal -5.972114e-001 -8.020838e-001 0.000000e+000
      outer loop
         vertex -7.747000e-002 -3.503734e-002 -4.826000e-002
         vertex -8.073413e-002 -3.275178e-002 4.826000e-002
         vertex -8.073413e-002 -3.275178e-002 -4.826000e-002
      endloop
   endfacet
   facet normal -6.861938e-001 -7.274188e-001 0.000000e+000
      outer loop
         vertex -8.073413e-002 -3.275178e-002 -4.826000e-002
         vertex -8.073413e-002 -3.275178e-002 4.826000e-002
         vertex -8.355178e-002 -2.993413e-002 4.826000e-002
      endloop
   endfacet
   facet normal -7.274188e-001 -6.861938e-001 0.000000e+000
      outer loop
         vertex -8.073413e-002 -3.275178e-002 -4.826000e-002
         vertex -8.355178e-002 -2.993413e-002 4.826000e-002
         vertex -8.355178e-002 -2.993413e-002 -4.826000e-002
      endloop
   endfacet
   facet normal -8.020838e-001 -5.972114e-001 0.000000e+000
      outer loop
         vertex -8.355178e-002 -2.993413e-002 -4.826000e-002
         vertex -8.355178e-002 -2.993413e-002 4.826000e-002
         vertex -8.583734e-002 -2.667000e-002 4.826000e-002
      endloop
   endfacet
   facet normal -8.355240e-001 -5.494540e-001 0.000000e+000
      outer loop
         vertex -8.355178e-002 -2.993413e-002 -4.826000e-002
         vertex -8.583734e-002 -2.667000e-002 4.826000e-002
         vertex -8.583734e-002 -2.667000e-002 -4.826000e-002
      endloop
   endfacet
   facet normal -8.936031e-001 -4.488580e-001 0.000000e+000
      outer loop
         vertex -8.583734e-002 -2.667000e-002 -4.826000e-002
         vertex -8.583734e-002 -2.667000e-002 4.826000e-002
         vertex -8.752137e-002 -2.305858e-002 4.826000e-002
      endloop
   endfacet
   facet normal -9.182422e-001 -3.960194e-001 0.000000e+000
      outer loop
         vertex -8.583734e-002 -2.667000e-002 -4.826000e-002
         vertex -8.752137e-002 -2.305858e-002 4.826000e-002
         vertex -8.752137e-002 -2.305858e-002 -4.826000e-002
      endloop
   endfacet
   facet normal -9.579706e-001 -2.868663e-001 0.000000e+000
      outer loop
         vertex -8.752137e-002 -2.305858e-002 -4.826000e-002
         vertex -8.752137e-002 -2.305858e-002 4.826000e-002
         vertex -8.855271e-002 -1.920960e-002 4.826000e-002
      endloop
   endfacet
   facet normal -9.730600e-001 -2.305519e-001 0.000000e+000
      outer loop
         vertex -8.752137e-002 -2.305858e-002 -4.826000e-002
         vertex -8.855271e-002 -1.920960e-002 4.826000e-002
         vertex -8.855271e-002 -1.920960e-002 -4.826000e-002
      endloop
   endfacet
   facet normal -9.932307e-001 -1.161583e-001 0.000000e+000
      outer loop
         vertex -8.855271e-002 -1.920960e-002 -4.826000e-002
         vertex -8.855271e-002 -1.920960e-002 4.826000e-002
         vertex -8.890000e-002 -1.524000e-002 4.826000e-002
      endloop
   endfacet
   facet normal -9.983119e-001 -5.807913e-002 0.000000e+000
      outer loop
         vertex -8.855271e-002 -1.920960e-002 -4.826000e-002
         vertex -8.890000e-002 -1.524000e-002 4.826000e-002
         vertex -8.890000e-002 -1.524000e-002 -4.826000e-002
      endloop
   endfacet
   facet normal -1.000000e+000 0.000000e+000 0.000000e+000
      outer loop
         vertex -8.890000e-002 2.286000e-001 4.826000e-002
         vertex -8.890000e-002 2.286000e-001 -4.826000e-002
         vertex -8.890000e-002 -1.524000e-002 4.826000e-002
      endloop
   endfacet
   facet normal -1.000000e+000 0.000000e+000 0.000000e+000
      outer loop
         vertex -8.890000e-002 -1.524000e-002 4.826000e-002
         vertex -8.890000e-002 2.286000e-001 -4.826000e-002
         vertex -8.890000e-002 -1.524000e-002 -4.826000e-002
      endloop
   endfacet
   facet normal 0.000000e+000 1.000000e+000 0.000000e+000
      outer loop
         vertex -7.997656e-002 2.286000e-001 4.826000e-002
         vertex -7.997656e-002 2.286000e-001 -4.826000e-002
         vertex -8.890000e-002 2.286000e-001 4.826000e-002
      endloop
   endfacet
   facet normal 0.000000e+000 1.000000e+000 0.000000e+000
      outer loop
         vertex -8.890000e-002 2.286000e-001 4.826000e-002
         vertex -7.997656e-002 2.286000e-001 -4.826000e-002
         vertex -8.890000e-002 2.286000e-001 -4.826000e-002
      endloop
   endfacet
   facet normal 5.197306e-002 9.986485e-001 0.000000e+000
      outer loop
         vertex -7.997656e-002 2.286000e-001 -4.826000e-002
         vertex -7.997656e-002 2.286000e-001 4.826000e-002
         vertex -7.642189e-002 2.283219e-001 4.826000e-002
      endloop
   endfacet
   facet normal 1.039461e-001 9.945830e-001 0.000000e+000
      outer loop
         vertex -7.997656e-002 2.286000e-001 -4.826000e-002
         vertex -7.642189e-002 2.283219e-001 4.826000e-002
         vertex -7.642189e-002 2.283219e-001 -4.826000e-002
      endloop
   endfacet
   facet normal 2.066279e-001 9.784196e-001 0.000000e+000
      outer loop
         vertex -7.642189e-002 2.283219e-001 -4.826000e-002
         vertex -7.642189e-002 2.283219e-001 4.826000e-002
         vertex -7.295370e-002 2.274945e-001 4.826000e-002
      endloop
   endfacet
   facet normal 2.573366e-001 9.663218e-001 0.000000e+000
      outer loop
         vertex -7.642189e-002 2.283219e-001 -4.826000e-002
         vertex -7.295370e-002 2.274945e-001 4.826000e-002
         vertex -7.295370e-002 2.274945e-001 -4.826000e-002
      endloop
   endfacet
   facet normal 3.562560e-001 9.343884e-001 0.000000e+000
      outer loop
         vertex -7.295370e-002 2.274945e-001 -4.826000e-002
         vertex -7.295370e-002 2.274945e-001 4.826000e-002
         vertex -6.965636e-002 2.261379e-001 4.826000e-002
      endloop
   endfacet
   facet normal 4.044667e-001 9.145527e-001 0.000000e+000
      outer loop
         vertex -7.295370e-002 2.274945e-001 -4.826000e-002
         vertex -6.965636e-002 2.261379e-001 4.826000e-002
         vertex -6.965636e-002 2.261379e-001 -4.826000e-002
      endloop
   endfacet
   facet normal 4.972174e-001 8.676260e-001 0.000000e+000
      outer loop
         vertex -6.965636e-002 2.261379e-001 -4.826000e-002
         vertex -6.965636e-002 2.261379e-001 4.826000e-002
         vertex -6.661008e-002 2.242850e-001 4.826000e-002
      endloop
   endfacet
   facet normal 5.417573e-001 8.405350e-001 0.000000e+000
      outer loop
         vertex -6.965636e-002 2.261379e-001 -4.826000e-002
         vertex -6.661008e-002 2.242850e-001 4.826000e-002
         vertex -6.661008e-002 2.242850e-001 -4.826000e-002
      endloop
   endfacet
   facet normal 6.260828e-001 7.797566e-001 0.000000e+000
      outer loop
         vertex -6.661008e-002 2.242850e-001 -4.826000e-002
         vertex -6.661008e-002 2.242850e-001 4.826000e-002
         vertex -6.388897e-002 2.219810e-001 4.826000e-002
      endloop
   endfacet
   facet normal 6.658684e-001 7.460693e-001 0.000000e+000
      outer loop
         vertex -6.661008e-002 2.242850e-001 -4.826000e-002
         vertex -6.388897e-002 2.219810e-001 4.826000e-002
         vertex -6.388897e-002 2.219810e-001 -4.826000e-002
      endloop
   endfacet
   facet normal 7.397172e-001 6.729178e-001 0.000000e+000
      outer loop
         vertex -6.388897e-002 2.219810e-001 -4.826000e-002
         vertex -6.388897e-002 2.219810e-001 4.826000e-002
         vertex -6.155923e-002 2.192819e-001 4.826000e-002
      endloop
   endfacet
   facet normal 7.737806e-001 6.334536e-001 0.000000e+000
      outer loop
         vertex -6.388897e-002 2.219810e-001 -4.826000e-002
         vertex -6.155923e-002 2.192819e-001 4.826000e-002
         vertex -6.155923e-002 2.192819e-001 -4.826000e-002
      endloop
   endfacet
   facet normal 8.353564e-001 5.497087e-001 0.000000e+000
      outer loop
         vertex -6.155923e-002 2.192819e-001 -4.826000e-002
         vertex -6.155923e-002 2.192819e-001 4.826000e-002
         vertex -5.967753e-002 2.162533e-001 4.826000e-002
      endloop
   endfacet
   facet normal 8.628688e-001 5.054278e-001 0.000000e+000
      outer loop
         vertex -6.155923e-002 2.192819e-001 -4.826000e-002
         vertex -5.967753e-002 2.162533e-001 4.826000e-002
         vertex -5.967753e-002 2.162533e-001 -4.826000e-002
      endloop
   endfacet
   facet normal 9.106736e-001 4.131267e-001 0.000000e+000
      outer loop
         vertex -5.967753e-002 2.162533e-001 -4.826000e-002
         vertex -5.967753e-002 2.162533e-001 4.826000e-002
         vertex -5.828965e-002 2.129690e-001 4.826000e-002
      endloop
   endfacet
   facet normal 9.309658e-001 3.651063e-001 0.000000e+000
      outer loop
         vertex -5.967753e-002 2.162533e-001 -4.826000e-002
         vertex -5.828965e-002 2.129690e-001 4.826000e-002
         vertex -5.828965e-002 2.129690e-001 -4.826000e-002
      endloop
   endfacet
   facet normal 9.486833e-001 3.162278e-001 0.000000e+000
      outer loop
         vertex 2.775558e-017 3.810000e-002 -4.826000e-002
         vertex -5.828965e-002 2.129690e-001 -4.826000e-002
         vertex 2.775558e-017 3.810000e-002 -1.270000e-002
      endloop
   endfacet
   facet normal 9.486833e-001 3.162278e-001 0.000000e+000
      outer loop
         vertex 2.775558e-017 3.810000e-002 -1.270000e-002
         vertex -5.828965e-002 2.129690e-001 -4.826000e-002
         vertex -5.828965e-002 2.129690e-001 4.826000e-002
      endloop
   endfacet
   facet normal 9.486833e-001 3.162278e-001 0.000000e+000
      outer loop
         vertex 2.775558e-017 3.810000e-002 -1.270000e-002
         vertex -5.828965e-002 2.129690e-001 4.826000e-002
         vertex 2.775558e-017 3.810000e-002 1.270000e-002
      endloop
   endfacet
   facet normal 9.486833e-001 3.162278e-001 0.000000e+000
      outer loop
         vertex 2.775558e-017 3.810000e-002 1.270000e-002
         vertex -5.828965e-002 2.129690e-001 4.826000e-002
         vertex 2.775558e-017 3.810000e-002 4.826000e-002
      endloop
   endfacet
   facet normal 0.000000e+000 0.000000e+000 1.000000e+000
      outer loop
         vertex -6.615995e-003 3.752118e-002 4.826000e-002
         vertex 4.665904e-018 3.810000e-002 4.826000e-002
         vertex -5.828965e-002 2.129690e-001 4.826000e-002
      endloop
   endfacet
   facet normal 0.000000e+000 0.000000e+000 1.000000e+000
      outer loop
         vertex -8.890000e-002 -1.524000e-002 4.826000e-002
         vertex -3.580229e-002 1.303097e-002 4.826000e-002
         vertex -8.890000e-002 2.286000e-001 4.826000e-002
      endloop
   endfacet
   facet normal 0.000000e+000 0.000000e+000 1.000000e+000
      outer loop
         vertex -8.890000e-002 2.286000e-001 4.826000e-002
         vertex -3.580229e-002 1.303097e-002 4.826000e-002
         vertex -3.299557e-002 1.905000e-002 4.826000e-002
      endloop
   endfacet
   facet normal 0.000000e+000 0.000000e+000 1.000000e+000
      outer loop
         vertex -8.890000e-002 2.286000e-001 4.826000e-002
         vertex -3.299557e-002 1.905000e-002 4.826000e-002
         vertex -2.918629e-002 2.449021e-002 4.826000e-002
      endloop
   endfacet
   facet normal 0.000000e+000 0.000000e+000 1.000000e+000
      outer loop
         vertex -6.388897e-002 2.219810e-001 4.826000e-002
         vertex -6.661008e-002 2.242850e-001 4.826000e-002
         vertex -6.965636e-002 2.261379e-001 4.826000e-002
      endloop
   endfacet
   facet normal 0.000000e+000 0.000000e+000 1.000000e+000
      outer loop
         vertex -7.295370e-002 2.274945e-001 4.826000e-002
         vertex -7.642189e-002 2.283219e-001 4.826000e-002
         vertex -5.828965e-002 2.129690e-001 4.826000e-002
      endloop
   endfacet
   facet normal 0.000000e+000 0.000000e+000 1.000000e+000
      outer loop
         vertex -5.828965e-002 2.129690e-001 4.826000e-002
         vertex -7.642189e-002 2.283219e-001 4.826000e-002
         vertex -7.997656e-002 2.286000e-001 4.826000e-002
      endloop
   endfacet
   facet normal 0.000000e+000 0.000000e+000 1.000000e+000
      outer loop
         vertex -5.828965e-002 2.129690e-001 4.826000e-002
         vertex -7.997656e-002 2.286000e-001 4.826000e-002
         vertex -6.615995e-003 3.752118e-002 4.826000e-002
      endloop
   endfacet
   facet normal 0.000000e+000 0.000000e+000 1.000000e+000
      outer loop
         vertex -8.855271e-002 -1.920960e-002 4.826000e-002
         vertex -3.810000e-002 -2.332954e-018 4.826000e-002
         vertex -8.890000e-002 -1.524000e-002 4.826000e-002
      endloop
   endfacet
   facet normal 0.000000e+000 0.000000e+000 1.000000e+000
      outer loop
         vertex -8.890000e-002 -1.524000e-002 4.826000e-002
         vertex -3.810000e-002 -2.332954e-018 4.826000e-002
         vertex -3.752118e-002 6.615995e-003 4.826000e-002
      endloop
   endfacet
   facet normal 0.000000e+000 0.000000e+000 1.000000e+000
      outer loop
         vertex -8.890000e-002 -1.524000e-002 4.826000e-002
         vertex -3.752118e-002 6.615995e-003 4.826000e-002
         vertex -3.580229e-002 1.303097e-002 4.826000e-002
      endloop
   endfacet
   facet normal 0.000000e+000 0.000000e+000 1.000000e+000
      outer loop
         vertex -8.855271e-002 -1.920960e-002 4.826000e-002
         vertex -8.752137e-002 -2.305858e-002 4.826000e-002
         vertex -3.810000e-002 -2.332954e-018 4.826000e-002
      endloop
   endfacet
   facet normal 0.000000e+000 0.000000e+000 1.000000e+000
      outer loop
         vertex -3.810000e-002 -2.332954e-018 4.826000e-002
         vertex -8.752137e-002 -2.305858e-002 4.826000e-002
         vertex -8.583734e-002 -2.667000e-002 4.826000e-002
      endloop
   endfacet
   facet normal 0.000000e+000 0.000000e+000 1.000000e+000
      outer loop
         vertex -3.810000e-002 -2.332954e-018 4.826000e-002
         vertex -8.583734e-002 -2.667000e-002 4.826000e-002
         vertex -8.355178e-002 -2.993413e-002 4.826000e-002
      endloop
   endfacet
   facet normal 0.000000e+000 0.000000e+000 1.000000e+000
      outer loop
         vertex -8.355178e-002 -2.993413e-002 4.826000e-002
         vertex -8.073413e-002 -3.275178e-002 4.826000e-002
         vertex -3.810000e-002 -2.332954e-018 4.826000e-002
      endloop
   endfacet
   facet normal 0.000000e+000 0.000000e+000 1.000000e+000
      outer loop
         vertex -3.810000e-002 -2.332954e-018 4.826000e-002
         vertex -8.073413e-002 -3.275178e-002 4.826000e-002
         vertex -7.747000e-002 -3.503734e-002 4.826000e-002
      endloop
   endfacet
   facet normal 0.000000e+000 0.000000e+000 1.000000e+000
      outer loop
         vertex -3.810000e-002 -2.332954e-018 4.826000e-002
         vertex -7.747000e-002 -3.503734e-002 4.826000e-002
         vertex -7.385858e-002 -3.672137e-002 4.826000e-002
      endloop
   endfacet
   facet normal 0.000000e+000 0.000000e+000 1.000000e+000
      outer loop
         vertex -2.918629e-002 2.449021e-002 4.826000e-002
         vertex -2.449021e-002 2.918629e-002 4.826000e-002
         vertex -8.890000e-002 2.286000e-001 4.826000e-002
      endloop
   endfacet
   facet normal 0.000000e+000 0.000000e+000 1.000000e+000
      outer loop
         vertex -8.890000e-002 2.286000e-001 4.826000e-002
         vertex -2.449021e-002 2.918629e-002 4.826000e-002
         vertex -1.905000e-002 3.299557e-002 4.826000e-002
      endloop
   endfacet
   facet normal 0.000000e+000 0.000000e+000 1.000000e+000
      outer loop
         vertex -8.890000e-002 2.286000e-001 4.826000e-002
         vertex -1.905000e-002 3.299557e-002 4.826000e-002
         vertex -7.997656e-002 2.286000e-001 4.826000e-002
      endloop
   endfacet
   facet normal 0.000000e+000 0.000000e+000 1.000000e+000
      outer loop
         vertex -7.997656e-002 2.286000e-001 4.826000e-002
         vertex -1.905000e-002 3.299557e-002 4.826000e-002
         vertex -1.303097e-002 3.580229e-002 4.826000e-002
      endloop
   endfacet
   facet normal 0.000000e+000 0.000000e+000 1.000000e+000
      outer loop
         vertex -7.997656e-002 2.286000e-001 4.826000e-002
         vertex -1.303097e-002 3.580229e-002 4.826000e-002
         vertex -6.615995e-003 3.752118e-002 4.826000e-002
      endloop
   endfacet
   facet normal 0.000000e+000 0.000000e+000 1.000000e+000
      outer loop
         vertex -6.388897e-002 2.219810e-001 4.826000e-002
         vertex -6.965636e-002 2.261379e-001 4.826000e-002
         vertex -6.155923e-002 2.192819e-001 4.826000e-002
      endloop
   endfacet
   facet normal 0.000000e+000 0.000000e+000 1.000000e+000
      outer loop
         vertex -7.385858e-002 -3.672137e-002 4.826000e-002
         vertex -7.000960e-002 -3.775271e-002 4.826000e-002
         vertex -3.810000e-002 -2.332954e-018 4.826000e-002
      endloop
   endfacet
   facet normal 0.000000e+000 0.000000e+000 1.000000e+000
      outer loop
         vertex -3.810000e-002 -2.332954e-018 4.826000e-002
         vertex -7.000960e-002 -3.775271e-002 4.826000e-002
         vertex -6.604000e-002 -3.810000e-002 4.826000e-002
      endloop
   endfacet
   facet normal 0.000000e+000 0.000000e+000 1.000000e+000
      outer loop
         vertex -3.810000e-002 -2.332954e-018 4.826000e-002
         vertex -6.604000e-002 -3.810000e-002 4.826000e-002
         vertex -3.810000e-002 -3.810000e-002 4.826000e-002
      endloop
   endfacet
   facet normal 0.000000e+000 0.000000e+000 1.000000e+000
      outer loop
         vertex -7.295370e-002 2.274945e-001 4.826000e-002
         vertex -5.828965e-002 2.129690e-001 4.826000e-002
         vertex -6.965636e-002 2.261379e-001 4.826000e-002
      endloop
   endfacet
   facet normal 0.000000e+000 0.000000e+000 1.000000e+000
      outer loop
         vertex -6.965636e-002 2.261379e-001 4.826000e-002
         vertex -5.828965e-002 2.129690e-001 4.826000e-002
         vertex -5.967753e-002 2.162533e-001 4.826000e-002
      endloop
   endfacet
   facet normal 0.000000e+000 0.000000e+000 1.000000e+000
      outer loop
         vertex -6.965636e-002 2.261379e-001 4.826000e-002
         vertex -5.967753e-002 2.162533e-001 4.826000e-002
         vertex -6.155923e-002 2.192819e-001 4.826000e-002
      endloop
   endfacet
   facet normal 5.807913e-002 -9.983119e-001 0.000000e+000
      outer loop
         vertex -6.126947e-018 3.810000e-002 1.270000e-002
         vertex -6.126947e-018 3.810000e-002 4.826000e-002
         vertex -6.615995e-003 3.752118e-002 4.826000e-002
      endloop
   endfacet
   facet normal 1.161583e-001 -9.932307e-001 0.000000e+000
      outer loop
         vertex -6.126947e-018 3.810000e-002 1.270000e-002
         vertex -6.615995e-003 3.752118e-002 4.826000e-002
         vertex -6.615995e-003 3.752118e-002 1.270000e-002
      endloop
   endfacet
   facet normal 2.305519e-001 -9.730600e-001 0.000000e+000
      outer loop
         vertex -6.615995e-003 3.752118e-002 1.270000e-002
         vertex -6.615995e-003 3.752118e-002 4.826000e-002
         vertex -1.303097e-002 3.580229e-002 4.826000e-002
      endloop
   endfacet
   facet normal 2.868663e-001 -9.579706e-001 0.000000e+000
      outer loop
         vertex -6.615995e-003 3.752118e-002 1.270000e-002
         vertex -1.303097e-002 3.580229e-002 4.826000e-002
         vertex -1.303097e-002 3.580229e-002 1.270000e-002
      endloop
   endfacet
   facet normal 3.960194e-001 -9.182422e-001 0.000000e+000
      outer loop
         vertex -1.303097e-002 3.580229e-002 1.270000e-002
         vertex -1.303097e-002 3.580229e-002 4.826000e-002
         vertex -1.905000e-002 3.299557e-002 4.826000e-002
      endloop
   endfacet
   facet normal 4.488580e-001 -8.936031e-001 0.000000e+000
      outer loop
         vertex -1.303097e-002 3.580229e-002 1.270000e-002
         vertex -1.905000e-002 3.299557e-002 4.826000e-002
         vertex -1.905000e-002 3.299557e-002 1.270000e-002
      endloop
   endfacet
   facet normal 5.494540e-001 -8.355240e-001 0.000000e+000
      outer loop
         vertex -1.905000e-002 3.299557e-002 1.270000e-002
         vertex -1.905000e-002 3.299557e-002 4.826000e-002
         vertex -2.449021e-002 2.918629e-002 4.826000e-002
      endloop
   endfacet
   facet normal 5.972114e-001 -8.020838e-001 0.000000e+000
      outer loop
         vertex -1.905000e-002 3.299557e-002 1.270000e-002
         vertex -2.449021e-002 2.918629e-002 4.826000e-002
         vertex -2.449021e-002 2.918629e-002 1.270000e-002
      endloop
   endfacet
   facet normal 6.861938e-001 -7.274188e-001 0.000000e+000
      outer loop
         vertex -2.449021e-002 2.918629e-002 1.270000e-002
         vertex -2.449021e-002 2.918629e-002 4.826000e-002
         vertex -2.918629e-002 2.449021e-002 4.826000e-002
      endloop
   endfacet
   facet normal 7.274188e-001 -6.861938e-001 0.000000e+000
      outer loop
         vertex -2.449021e-002 2.918629e-002 1.270000e-002
         vertex -2.918629e-002 2.449021e-002 4.826000e-002
         vertex -2.918629e-002 2.449021e-002 1.270000e-002
      endloop
   endfacet
   facet normal 8.020838e-001 -5.972114e-001 0.000000e+000
      outer loop
         vertex -2.918629e-002 2.449021e-002 1.270000e-002
         vertex -2.918629e-002 2.449021e-002 4.826000e-002
         vertex -3.299557e-002 1.905000e-002 4.826000e-002
      endloop
   endfacet
   facet normal 8.355240e-001 -5.494540e-001 0.000000e+000
      outer loop
         vertex -2.918629e-002 2.449021e-002 1.270000e-002
         vertex -3.299557e-002 1.905000e-002 4.826000e-002
         vertex -3.299557e-002 1.905000e-002 1.270000e-002
      endloop
   endfacet
   facet normal 8.936031e-001 -4.488580e-001 0.000000e+000
      outer loop
         vertex -3.299557e-002 1.905000e-002 1.270000e-002
         vertex -3.299557e-002 1.905000e-002 4.826000e-002
         vertex -3.580229e-002 1.303097e-002 4.826000e-002
      endloop
   endfacet
   facet normal 9.182422e-001 -3.960194e-001 0.000000e+000
      outer loop
         vertex -3.299557e-002 1.905000e-002 1.270000e-002
         vertex -3.580229e-002 1.303097e-002 4.826000e-002
         vertex -3.580229e-002 1.303097e-002 1.270000e-002
      endloop
   endfacet
   facet normal 9.579706e-001 -2.868663e-001 0.000000e+000
      outer loop
         vertex -3.580229e-002 1.303097e-002 1.270000e-002
         vertex -3.580229e-002 1.303097e-002 4.826000e-002
         vertex -3.752118e-002 6.615995e-003 4.826000e-002
      endloop
   endfacet
   facet normal 9.730600e-001 -2.305519e-001 0.000000e+000
      outer loop
         vertex -3.580229e-002 1.303097e-002 1.270000e-002
         vertex -3.752118e-002 6.615995e-003 4.826000e-002
         vertex -3.752118e-002 6.615995e-003 1.270000e-002
      endloop
   endfacet
   facet normal 9.932307e-001 -1.161583e-001 0.000000e+000
      outer loop
         vertex -3.752118e-002 6.615995e-003 1.270000e-002
         vertex -3.752118e-002 6.615995e-003 4.826000e-002
         vertex -3.810000e-002 4.665904e-018 4.826000e-002
      endloop
   endfacet
   facet normal 9.983119e-001 -5.807913e-002 0.000000e+000
      outer loop
         vertex -3.752118e-002 6.615995e-003 1.270000e-002
         vertex -3.810000e-002 4.665904e-018 4.826000e-002
         vertex -3.810000e-002 4.665904e-018 1.270000e-002
      endloop
   endfacet
   facet normal 1.000000e+000 1.821232e-016 0.000000e+000
      outer loop
         vertex -3.810000e-002 -2.332954e-018 4.826000e-002
         vertex -3.810000e-002 -3.810000e-002 4.826000e-002
         vertex -3.810000e-002 4.665904e-018 1.270000e-002
      endloop
   endfacet
   facet normal 1.000000e+000 1.821232e-016 0.000000e+000
      outer loop
         vertex -3.810000e-002 4.665904e-018 1.270000e-002
         vertex -3.810000e-002 -3.810000e-002 4.826000e-002
         vertex -3.810000e-002 -3.810000e-002 1.270000e-002
      endloop
   endfacet
   facet normal 0.000000e+000 0.000000e+000 1.000000e+000
      outer loop
         vertex -3.810000e-002 -2.332952e-018 1.270000e-002
         vertex -3.810000e-002 -3.810000e-002 1.270000e-002
         vertex -6.998856e-018 -3.810000e-002 1.270000e-002
      endloop
   endfacet
   facet normal 0.000000e+000 0.000000e+000 1.000000e+000
      outer loop
         vertex -3.810000e-002 -2.332952e-018 1.270000e-002
         vertex -6.998856e-018 -3.810000e-002 1.270000e-002
         vertex -3.752118e-002 6.615995e-003 1.270000e-002
      endloop
   endfacet
   facet normal 0.000000e+000 0.000000e+000 1.000000e+000
      outer loop
         vertex 1.303097e-002 -3.580229e-002 1.270000e-002
         vertex 1.905000e-002 -3.299557e-002 1.270000e-002
         vertex 1.166476e-017 3.810000e-002 1.270000e-002
      endloop
   endfacet
   facet normal 0.000000e+000 0.000000e+000 1.000000e+000
      outer loop
         vertex 1.905000e-002 -3.299557e-002 1.270000e-002
         vertex 2.449021e-002 -2.918629e-002 1.270000e-002
         vertex 1.166476e-017 3.810000e-002 1.270000e-002
      endloop
   endfacet
   facet normal 0.000000e+000 0.000000e+000 1.000000e+000
      outer loop
         vertex 1.166476e-017 3.810000e-002 1.270000e-002
         vertex 2.449021e-002 -2.918629e-002 1.270000e-002
         vertex 2.918629e-002 -2.449021e-002 1.270000e-002
      endloop
   endfacet
   facet normal 0.000000e+000 0.000000e+000 1.000000e+000
      outer loop
         vertex 1.166476e-017 3.810000e-002 1.270000e-002
         vertex 2.918629e-002 -2.449021e-002 1.270000e-002
         vertex 3.299557e-002 -1.905000e-002 1.270000e-002
      endloop
   endfacet
   facet normal 0.000000e+000 0.000000e+000 1.000000e+000
      outer loop
         vertex -6.998856e-018 -3.810000e-002 1.270000e-002
         vertex -6.615995e-003 3.752118e-002 1.270000e-002
         vertex -1.303097e-002 3.580229e-002 1.270000e-002
      endloop
   endfacet
   facet normal 0.000000e+000 0.000000e+000 1.000000e+000
      outer loop
         vertex -6.615995e-003 3.752118e-002 1.270000e-002
         vertex -6.998856e-018 -3.810000e-002 1.270000e-002
         vertex 1.166476e-017 3.810000e-002 1.270000e-002
      endloop
   endfacet
   facet normal 0.000000e+000 0.000000e+000 1.000000e+000
      outer loop
         vertex 1.166476e-017 3.810000e-002 1.270000e-002
         vertex -6.998856e-018 -3.810000e-002 1.270000e-002
         vertex 6.615995e-003 -3.752118e-002 1.270000e-002
      endloop
   endfacet
   facet normal 0.000000e+000 0.000000e+000 1.000000e+000
      outer loop
         vertex 1.166476e-017 3.810000e-002 1.270000e-002
         vertex 6.615995e-003 -3.752118e-002 1.270000e-002
         vertex 1.303097e-002 -3.580229e-002 1.270000e-002
      endloop
   endfacet
   facet normal 0.000000e+000 0.000000e+000 1.000000e+000
      outer loop
         vertex -1.303097e-002 3.580229e-002 1.270000e-002
         vertex -1.905000e-002 3.299557e-002 1.270000e-002
         vertex -6.998856e-018 -3.810000e-002 1.270000e-002
      endloop
   endfacet
   facet normal 0.000000e+000 0.000000e+000 1.000000e+000
      outer loop
         vertex -6.998856e-018 -3.810000e-002 1.270000e-002
         vertex -1.905000e-002 3.299557e-002 1.270000e-002
         vertex -2.449021e-002 2.918629e-002 1.270000e-002
      endloop
   endfacet
   facet normal 0.000000e+000 0.000000e+000 1.000000e+000
      outer loop
         vertex -6.998856e-018 -3.810000e-002 1.270000e-002
         vertex -2.449021e-002 2.918629e-002 1.270000e-002
         vertex -2.918629e-002 2.449021e-002 1.270000e-002
      endloop
   endfacet
   facet normal 0.000000e+000 0.000000e+000 1.000000e+000
      outer loop
         vertex 1.905000e-002 3.299557e-002 1.270000e-002
         vertex 1.303097e-002 3.580229e-002 1.270000e-002
         vertex 3.752118e-002 -6.615995e-003 1.270000e-002
      endloop
   endfacet
   facet normal 0.000000e+000 0.000000e+000 1.000000e+000
      outer loop
         vertex -2.918629e-002 2.449021e-002 1.270000e-002
         vertex -3.299557e-002 1.905000e-002 1.270000e-002
         vertex -6.998856e-018 -3.810000e-002 1.270000e-002
      endloop
   endfacet
   facet normal 0.000000e+000 0.000000e+000 1.000000e+000
      outer loop
         vertex -6.998856e-018 -3.810000e-002 1.270000e-002
         vertex -3.299557e-002 1.905000e-002 1.270000e-002
         vertex -3.580229e-002 1.303097e-002 1.270000e-002
      endloop
   endfacet
   facet normal 0.000000e+000 0.000000e+000 1.000000e+000
      outer loop
         vertex -6.998856e-018 -3.810000e-002 1.270000e-002
         vertex -3.580229e-002 1.303097e-002 1.270000e-002
         vertex -3.752118e-002 6.615995e-003 1.270000e-002
      endloop
   endfacet
   facet normal 0.000000e+000 0.000000e+000 1.000000e+000
      outer loop
         vertex 3.810000e-002 -9.331808e-018 1.270000e-002
         vertex 3.752118e-002 6.615995e-003 1.270000e-002
         vertex 2.918629e-002 2.449021e-002 1.270000e-002
      endloop
   endfacet
   facet normal 0.000000e+000 0.000000e+000 1.000000e+000
      outer loop
         vertex 2.918629e-002 2.449021e-002 1.270000e-002
         vertex 3.752118e-002 6.615995e-003 1.270000e-002
         vertex 3.580229e-002 1.303097e-002 1.270000e-002
      endloop
   endfacet
   facet normal 0.000000e+000 0.000000e+000 1.000000e+000
      outer loop
         vertex 2.918629e-002 2.449021e-002 1.270000e-002
         vertex 3.580229e-002 1.303097e-002 1.270000e-002
         vertex 3.299557e-002 1.905000e-002 1.270000e-002
      endloop
   endfacet
   facet normal 0.000000e+000 0.000000e+000 1.000000e+000
      outer loop
         vertex 3.299557e-002 -1.905000e-002 1.270000e-002
         vertex 3.580229e-002 -1.303097e-002 1.270000e-002
         vertex 1.166476e-017 3.810000e-002 1.270000e-002
      endloop
   endfacet
   facet normal 0.000000e+000 0.000000e+000 1.000000e+000
      outer loop
         vertex 1.166476e-017 3.810000e-002 1.270000e-002
         vertex 3.580229e-002 -1.303097e-002 1.270000e-002
         vertex 3.752118e-002 -6.615995e-003 1.270000e-002
      endloop
   endfacet
   facet normal 0.000000e+000 0.000000e+000 1.000000e+000
      outer loop
         vertex 1.166476e-017 3.810000e-002 1.270000e-002
         vertex 3.752118e-002 -6.615995e-003 1.270000e-002
         vertex 6.615995e-003 3.752118e-002 1.270000e-002
      endloop
   endfacet
   facet normal 0.000000e+000 0.000000e+000 1.000000e+000
      outer loop
         vertex 6.615995e-003 3.752118e-002 1.270000e-002
         vertex 3.752118e-002 -6.615995e-003 1.270000e-002
         vertex 1.303097e-002 3.580229e-002 1.270000e-002
      endloop
   endfacet
   facet normal 0.000000e+000 0.000000e+000 1.000000e+000
      outer loop
         vertex 3.810000e-002 -9.331808e-018 1.270000e-002
         vertex 2.918629e-002 2.449021e-002 1.270000e-002
         vertex 3.752118e-002 -6.615995e-003 1.270000e-002
      endloop
   endfacet
   facet normal 0.000000e+000 0.000000e+000 1.000000e+000
      outer loop
         vertex 3.752118e-002 -6.615995e-003 1.270000e-002
         vertex 2.918629e-002 2.449021e-002 1.270000e-002
         vertex 2.449021e-002 2.918629e-002 1.270000e-002
      endloop
   endfacet
   facet normal 0.000000e+000 0.000000e+000 1.000000e+000
      outer loop
         vertex 3.752118e-002 -6.615995e-003 1.270000e-002
         vertex 2.449021e-002 2.918629e-002 1.270000e-002
         vertex 1.905000e-002 3.299557e-002 1.270000e-002
      endloop
   endfacet
   facet normal 9.983119e-001 -5.807913e-002 0.000000e+000
      outer loop
         vertex -3.810000e-002 0.000000e+000 -1.270000e-002
         vertex -3.810000e-002 0.000000e+000 -4.826000e-002
         vertex -3.752118e-002 6.615995e-003 -4.826000e-002
      endloop
   endfacet
   facet normal 9.932307e-001 -1.161583e-001 0.000000e+000
      outer loop
         vertex -3.810000e-002 0.000000e+000 -1.270000e-002
         vertex -3.752118e-002 6.615995e-003 -4.826000e-002
         vertex -3.752118e-002 6.615995e-003 -1.270000e-002
      endloop
   endfacet
   facet normal 9.730600e-001 -2.305519e-001 0.000000e+000
      outer loop
         vertex -3.752118e-002 6.615995e-003 -1.270000e-002
         vertex -3.752118e-002 6.615995e-003 -4.826000e-002
         vertex -3.580229e-002 1.303097e-002 -4.826000e-002
      endloop
   endfacet
   facet normal 9.579706e-001 -2.868663e-001 0.000000e+000
      outer loop
         vertex -3.752118e-002 6.615995e-003 -1.270000e-002
         vertex -3.580229e-002 1.303097e-002 -4.826000e-002
         vertex -3.580229e-002 1.303097e-002 -1.270000e-002
      endloop
   endfacet
   facet normal 9.182422e-001 -3.960194e-001 0.000000e+000
      outer loop
         vertex -3.580229e-002 1.303097e-002 -1.270000e-002
         vertex -3.580229e-002 1.303097e-002 -4.826000e-002
         vertex -3.299557e-002 1.905000e-002 -4.826000e-002
      endloop
   endfacet
   facet normal 8.936031e-001 -4.488580e-001 0.000000e+000
      outer loop
         vertex -3.580229e-002 1.303097e-002 -1.270000e-002
         vertex -3.299557e-002 1.905000e-002 -4.826000e-002
         vertex -3.299557e-002 1.905000e-002 -1.270000e-002
      endloop
   endfacet
   facet normal 8.355240e-001 -5.494540e-001 0.000000e+000
      outer loop
         vertex -3.299557e-002 1.905000e-002 -1.270000e-002
         vertex -3.299557e-002 1.905000e-002 -4.826000e-002
         vertex -2.918629e-002 2.449021e-002 -4.826000e-002
      endloop
   endfacet
   facet normal 8.020838e-001 -5.972114e-001 0.000000e+000
      outer loop
         vertex -3.299557e-002 1.905000e-002 -1.270000e-002
         vertex -2.918629e-002 2.449021e-002 -4.826000e-002
         vertex -2.918629e-002 2.449021e-002 -1.270000e-002
      endloop
   endfacet
   facet normal 7.274188e-001 -6.861938e-001 0.000000e+000
      outer loop
         vertex -2.918629e-002 2.449021e-002 -1.270000e-002
         vertex -2.918629e-002 2.449021e-002 -4.826000e-002
         vertex -2.449021e-002 2.918629e-002 -4.826000e-002
      endloop
   endfacet
   facet normal 6.861938e-001 -7.274188e-001 0.000000e+000
      outer loop
         vertex -2.918629e-002 2.449021e-002 -1.270000e-002
         vertex -2.449021e-002 2.918629e-002 -4.826000e-002
         vertex -2.449021e-002 2.918629e-002 -1.270000e-002
      endloop
   endfacet
   facet normal 5.972114e-001 -8.020838e-001 0.000000e+000
      outer loop
         vertex -2.449021e-002 2.918629e-002 -1.270000e-002
         vertex -2.449021e-002 2.918629e-002 -4.826000e-002
         vertex -1.905000e-002 3.299557e-002 -4.826000e-002
      endloop
   endfacet
   facet normal 5.494540e-001 -8.355240e-001 0.000000e+000
      outer loop
         vertex -2.449021e-002 2.918629e-002 -1.270000e-002
         vertex -1.905000e-002 3.299557e-002 -4.826000e-002
         vertex -1.905000e-002 3.299557e-002 -1.270000e-002
      endloop
   endfacet
   facet normal 4.488580e-001 -8.936031e-001 0.000000e+000
      outer loop
         vertex -1.905000e-002 3.299557e-002 -1.270000e-002
         vertex -1.905000e-002 3.299557e-002 -4.826000e-002
         vertex -1.303097e-002 3.580229e-002 -4.826000e-002
      endloop
   endfacet
   facet normal 3.960194e-001 -9.182422e-001 0.000000e+000
      outer loop
         vertex -1.905000e-002 3.299557e-002 -1.270000e-002
         vertex -1.303097e-002 3.580229e-002 -4.826000e-002
         vertex -1.303097e-002 3.580229e-002 -1.270000e-002
      endloop
   endfacet
   facet normal 2.868663e-001 -9.579706e-001 0.000000e+000
      outer loop
         vertex -1.303097e-002 3.580229e-002 -1.270000e-002
         vertex -1.303097e-002 3.580229e-002 -4.826000e-002
         vertex -6.615995e-003 3.752118e-002 -4.826000e-002
      endloop
   endfacet
   facet normal 2.305519e-001 -9.730600e-001 0.000000e+000
      outer loop
         vertex -1.303097e-002 3.580229e-002 -1.270000e-002
         vertex -6.615995e-003 3.752118e-002 -4.826000e-002
         vertex -6.615995e-003 3.752118e-002 -1.270000e-002
      endloop
   endfacet
   facet normal 1.161583e-001 -9.932307e-001 0.000000e+000
      outer loop
         vertex -6.615995e-003 3.752118e-002 -1.270000e-002
         vertex -6.615995e-003 3.752118e-002 -4.826000e-002
         vertex 6.126947e-018 3.810000e-002 -4.826000e-002
      endloop
   endfacet
   facet normal 5.807913e-002 -9.983119e-001 0.000000e+000
      outer loop
         vertex -6.615995e-003 3.752118e-002 -1.270000e-002
         vertex 6.126947e-018 3.810000e-002 -4.826000e-002
         vertex 6.126947e-018 3.810000e-002 -1.270000e-002
      endloop
   endfacet
   facet normal 1.000000e+000 1.821232e-016 0.000000e+000
      outer loop
         vertex -3.810000e-002 -3.810000e-002 -4.826000e-002
         vertex -3.810000e-002 0.000000e+000 -4.826000e-002
         vertex -3.810000e-002 -3.810000e-002 -1.270000e-002
      endloop
   endfacet
   facet normal 1.000000e+000 1.821232e-016 0.000000e+000
      outer loop
         vertex -3.810000e-002 -3.810000e-002 -1.270000e-002
         vertex -3.810000e-002 0.000000e+000 -4.826000e-002
         vertex -3.810000e-002 0.000000e+000 -1.270000e-002
      endloop
   endfacet
   facet normal 0.000000e+000 0.000000e+000 -1.000000e+000
      outer loop
         vertex -1.303097e-002 3.580229e-002 -1.270000e-002
         vertex -6.615995e-003 3.752118e-002 -1.270000e-002
         vertex -6.998856e-018 -3.810000e-002 -1.270000e-002
      endloop
   endfacet
   facet normal 0.000000e+000 0.000000e+000 -1.000000e+000
      outer loop
         vertex -6.998856e-018 -3.810000e-002 -1.270000e-002
         vertex -6.615995e-003 3.752118e-002 -1.270000e-002
         vertex 1.166476e-017 3.810000e-002 -1.270000e-002
      endloop
   endfacet
   facet normal 0.000000e+000 0.000000e+000 -1.000000e+000
      outer loop
         vertex 2.449021e-002 -2.918629e-002 -1.270000e-002
         vertex 1.905000e-002 -3.299557e-002 -1.270000e-002
         vertex 1.166476e-017 3.810000e-002 -1.270000e-002
      endloop
   endfacet
   facet normal 0.000000e+000 0.000000e+000 -1.000000e+000
      outer loop
         vertex -3.810000e-002 -3.810000e-002 -1.270000e-002
         vertex -3.810000e-002 0.000000e+000 -1.270000e-002
         vertex -6.998856e-018 -3.810000e-002 -1.270000e-002
      endloop
   endfacet
   facet normal 0.000000e+000 0.000000e+000 -1.000000e+000
      outer loop
         vertex -6.998856e-018 -3.810000e-002 -1.270000e-002
         vertex -3.810000e-002 0.000000e+000 -1.270000e-002
         vertex -3.752118e-002 6.615995e-003 -1.270000e-002
      endloop
   endfacet
   facet normal 0.000000e+000 0.000000e+000 -1.000000e+000
      outer loop
         vertex -3.752118e-002 6.615995e-003 -1.270000e-002
         vertex -3.580229e-002 1.303097e-002 -1.270000e-002
         vertex -6.998856e-018 -3.810000e-002 -1.270000e-002
      endloop
   endfacet
   facet normal 0.000000e+000 0.000000e+000 -1.000000e+000
      outer loop
         vertex -6.998856e-018 -3.810000e-002 -1.270000e-002
         vertex -3.580229e-002 1.303097e-002 -1.270000e-002
         vertex -3.299557e-002 1.905000e-002 -1.270000e-002
      endloop
   endfacet
   facet normal 0.000000e+000 0.000000e+000 -1.000000e+000
      outer loop
         vertex -6.998856e-018 -3.810000e-002 -1.270000e-002
         vertex -3.299557e-002 1.905000e-002 -1.270000e-002
         vertex -2.918629e-002 2.449021e-002 -1.270000e-002
      endloop
   endfacet
   facet normal 0.000000e+000 0.000000e+000 -1.000000e+000
      outer loop
         vertex 2.449021e-002 -2.918629e-002 -1.270000e-002
         vertex 1.166476e-017 3.810000e-002 -1.270000e-002
         vertex 2.918629e-002 -2.449021e-002 -1.270000e-002
      endloop
   endfacet
   facet normal 0.000000e+000 0.000000e+000 -1.000000e+000
      outer loop
         vertex 2.918629e-002 -2.449021e-002 -1.270000e-002
         vertex 1.166476e-017 3.810000e-002 -1.270000e-002
         vertex 6.615995e-003 3.752118e-002 -1.270000e-002
      endloop
   endfacet
   facet normal 0.000000e+000 0.000000e+000 -1.000000e+000
      outer loop
         vertex 2.918629e-002 -2.449021e-002 -1.270000e-002
         vertex 6.615995e-003 3.752118e-002 -1.270000e-002
         vertex 1.303097e-002 3.580229e-002 -1.270000e-002
      endloop
   endfacet
   facet normal 0.000000e+000 0.000000e+000 -1.000000e+000
      outer loop
         vertex 3.752118e-002 -6.615995e-003 -1.270000e-002
         vertex 2.918629e-002 2.449021e-002 -1.270000e-002
         vertex 3.299557e-002 1.905000e-002 -1.270000e-002
      endloop
   endfacet
   facet normal 0.000000e+000 0.000000e+000 -1.000000e+000
      outer loop
         vertex 1.905000e-002 -3.299557e-002 -1.270000e-002
         vertex 1.303097e-002 -3.580229e-002 -1.270000e-002
         vertex 1.166476e-017 3.810000e-002 -1.270000e-002
      endloop
   endfacet
   facet normal 0.000000e+000 0.000000e+000 -1.000000e+000
      outer loop
         vertex 1.166476e-017 3.810000e-002 -1.270000e-002
         vertex 1.303097e-002 -3.580229e-002 -1.270000e-002
         vertex 6.615995e-003 -3.752118e-002 -1.270000e-002
      endloop
   endfacet
   facet normal 0.000000e+000 0.000000e+000 -1.000000e+000
      outer loop
         vertex 1.166476e-017 3.810000e-002 -1.270000e-002
         vertex 6.615995e-003 -3.752118e-002 -1.270000e-002
         vertex -6.998856e-018 -3.810000e-002 -1.270000e-002
      endloop
   endfacet
   facet normal 0.000000e+000 0.000000e+000 -1.000000e+000
      outer loop
         vertex -2.918629e-002 2.449021e-002 -1.270000e-002
         vertex -2.449021e-002 2.918629e-002 -1.270000e-002
         vertex -6.998856e-018 -3.810000e-002 -1.270000e-002
      endloop
   endfacet
   facet normal 0.000000e+000 0.000000e+000 -1.000000e+000
      outer loop
         vertex -6.998856e-018 -3.810000e-002 -1.270000e-002
         vertex -2.449021e-002 2.918629e-002 -1.270000e-002
         vertex -1.905000e-002 3.299557e-002 -1.270000e-002
      endloop
   endfacet
   facet normal 0.000000e+000 0.000000e+000 -1.000000e+000
      outer loop
         vertex -6.998856e-018 -3.810000e-002 -1.270000e-002
         vertex -1.905000e-002 3.299557e-002 -1.270000e-002
         vertex -1.303097e-002 3.580229e-002 -1.270000e-002
      endloop
   endfacet
   facet normal 0.000000e+000 0.000000e+000 -1.000000e+000
      outer loop
         vertex 3.752118e-002 -6.615995e-003 -1.270000e-002
         vertex 3.580229e-002 -1.303097e-002 -1.270000e-002
         vertex 2.918629e-002 2.449021e-002 -1.270000e-002
      endloop
   endfacet
   facet normal 0.000000e+000 0.000000e+000 -1.000000e+000
      outer loop
         vertex 2.918629e-002 2.449021e-002 -1.270000e-002
         vertex 3.580229e-002 -1.303097e-002 -1.270000e-002
         vertex 3.299557e-002 -1.905000e-002 -1.270000e-002
      endloop
   endfacet
   facet normal 0.000000e+000 0.000000e+000 -1.000000e+000
      outer loop
         vertex 2.918629e-002 2.449021e-002 -1.270000e-002
         vertex 3.299557e-002 -1.905000e-002 -1.270000e-002
         vertex 2.918629e-002 -2.449021e-002 -1.270000e-002
      endloop
   endfacet
   facet normal 0.000000e+000 0.000000e+000 -1.000000e+000
      outer loop
         vertex 1.303097e-002 3.580229e-002 -1.270000e-002
         vertex 1.905000e-002 3.299557e-002 -1.270000e-002
         vertex 2.918629e-002 -2.449021e-002 -1.270000e-002
      endloop
   endfacet
   facet normal 0.000000e+000 0.000000e+000 -1.000000e+000
      outer loop
         vertex 2.918629e-002 -2.449021e-002 -1.270000e-002
         vertex 1.905000e-002 3.299557e-002 -1.270000e-002
         vertex 2.449021e-002 2.918629e-002 -1.270000e-002
      endloop
   endfacet
   facet normal 0.000000e+000 0.000000e+000 -1.000000e+000
      outer loop
         vertex 2.918629e-002 -2.449021e-002 -1.270000e-002
         vertex 2.449021e-002 2.918629e-002 -1.270000e-002
         vertex 2.918629e-002 2.449021e-002 -1.270000e-002
      endloop
   endfacet
   facet normal 0.000000e+000 0.000000e+000 -1.000000e+000
      outer loop
         vertex 3.299557e-002 1.905000e-002 -1.270000e-002
         vertex 3.580229e-002 1.303097e-002 -1.270000e-002
         vertex 3.752118e-002 -6.615995e-003 -1.270000e-002
      endloop
   endfacet
   facet normal 0.000000e+000 0.000000e+000 -1.000000e+000
      outer loop
         vertex 3.752118e-002 -6.615995e-003 -1.270000e-002
         vertex 3.580229e-002 1.303097e-002 -1.270000e-002
         vertex 3.752118e-002 6.615995e-003 -1.270000e-002
      endloop
   endfacet
   facet normal 0.000000e+000 0.000000e+000 -1.000000e+000
      outer loop
         vertex 3.752118e-002 -6.615995e-003 -1.270000e-002
         vertex 3.752118e-002 6.615995e-003 -1.270000e-002
         vertex 3.810000e-002 -9.331808e-018 -1.270000e-002
      endloop
   endfacet
endsolid