solid Test_Hand-m
   facet normal 1.000000e+000 0.000000e+000 3.691686e-016
      outer loop
         vertex -3.429000e-002 3.429000e-002 3.149600e-002
         vertex -3.429000e-002 -3.429000e-002 3.149600e-002
         vertex -3.429000e-002 3.429000e-002 1.270000e-002
      endloop
   endfacet
   facet normal 1.000000e+000 0.000000e+000 3.691686e-016
      outer loop
         vertex -3.429000e-002 3.429000e-002 1.270000e-002
         vertex -3.429000e-002 -3.429000e-002 3.149600e-002
         vertex -3.429000e-002 -3.429000e-002 1.270000e-002
      endloop
   endfacet
   facet normal 9.983119e-001 0.000000e+000 5.807913e-002
      outer loop
         vertex -3.429000e-002 -3.429000e-002 3.149600e-002
         vertex -3.429000e-002 3.429000e-002 3.149600e-002
         vertex -3.448294e-002 3.429000e-002 3.370133e-002
      endloop
   endfacet
   facet normal 9.932307e-001 0.000000e+000 1.161583e-001
      outer loop
         vertex -3.429000e-002 -3.429000e-002 3.149600e-002
         vertex -3.448294e-002 3.429000e-002 3.370133e-002
         vertex -3.448294e-002 -3.429000e-002 3.370133e-002
      endloop
   endfacet
   facet normal 9.730600e-001 0.000000e+000 2.305519e-001
      outer loop
         vertex -3.448294e-002 -3.429000e-002 3.370133e-002
         vertex -3.448294e-002 3.429000e-002 3.370133e-002
         vertex -3.505590e-002 3.429000e-002 3.583965e-002
      endloop
   endfacet
   facet normal 9.579706e-001 0.000000e+000 2.868663e-001
      outer loop
         vertex -3.448294e-002 -3.429000e-002 3.370133e-002
         vertex -3.505590e-002 3.429000e-002 3.583965e-002
         vertex -3.505590e-002 -3.429000e-002 3.583965e-002
      endloop
   endfacet
   facet normal 9.182422e-001 0.000000e+000 3.960194e-001
      outer loop
         vertex -3.505590e-002 -3.429000e-002 3.583965e-002
         vertex -3.505590e-002 3.429000e-002 3.583965e-002
         vertex -3.599148e-002 3.429000e-002 3.784600e-002
      endloop
   endfacet
   facet normal 8.936031e-001 0.000000e+000 4.488580e-001
      outer loop
         vertex -3.505590e-002 -3.429000e-002 3.583965e-002
         vertex -3.599148e-002 3.429000e-002 3.784600e-002
         vertex -3.599148e-002 -3.429000e-002 3.784600e-002
      endloop
   endfacet
   facet normal 8.355240e-001 0.000000e+000 5.494540e-001
      outer loop
         vertex -3.599148e-002 -3.429000e-002 3.784600e-002
         vertex -3.599148e-002 3.429000e-002 3.784600e-002
         vertex -3.726124e-002 3.429000e-002 3.965940e-002
      endloop
   endfacet
   facet normal 8.020838e-001 0.000000e+000 5.972114e-001
      outer loop
         vertex -3.599148e-002 -3.429000e-002 3.784600e-002
         vertex -3.726124e-002 3.429000e-002 3.965940e-002
         vertex -3.726124e-002 -3.429000e-002 3.965940e-002
      endloop
   endfacet
   facet normal 7.274188e-001 0.000000e+000 6.861938e-001
      outer loop
         vertex -3.726124e-002 -3.429000e-002 3.965940e-002
         vertex -3.726124e-002 3.429000e-002 3.965940e-002
         vertex -3.882660e-002 3.429000e-002 4.122476e-002
      endloop
   endfacet
   facet normal 6.861938e-001 0.000000e+000 7.274188e-001
      outer loop
         vertex -3.726124e-002 -3.429000e-002 3.965940e-002
         vertex -3.882660e-002 3.429000e-002 4.122476e-002
         vertex -3.882660e-002 -3.429000e-002 4.122476e-002
      endloop
   endfacet
   facet normal 5.972114e-001 0.000000e+000 8.020838e-001
      outer loop
         vertex -3.882660e-002 -3.429000e-002 4.122476e-002
         vertex -3.882660e-002 3.429000e-002 4.122476e-002
         vertex -4.064000e-002 3.429000e-002 4.249452e-002
      endloop
   endfacet
   facet normal 5.494540e-001 0.000000e+000 8.355240e-001
      outer loop
         vertex -3.882660e-002 -3.429000e-002 4.122476e-002
         vertex -4.064000e-002 3.429000e-002 4.249452e-002
         vertex -4.064000e-002 -3.429000e-002 4.249452e-002
      endloop
   endfacet
   facet normal 4.488580e-001 0.000000e+000 8.936031e-001
      outer loop
         vertex -4.064000e-002 -3.429000e-002 4.249452e-002
         vertex -4.064000e-002 3.429000e-002 4.249452e-002
         vertex -4.264634e-002 3.429000e-002 4.343010e-002
      endloop
   endfacet
   facet normal 3.960194e-001 0.000000e+000 9.182422e-001
      outer loop
         vertex -4.064000e-002 -3.429000e-002 4.249452e-002
         vertex -4.264634e-002 3.429000e-002 4.343010e-002
         vertex -4.264634e-002 -3.429000e-002 4.343010e-002
      endloop
   endfacet
   facet normal 2.868663e-001 0.000000e+000 9.579706e-001
      outer loop
         vertex -4.264634e-002 -3.429000e-002 4.343010e-002
         vertex -4.264634e-002 3.429000e-002 4.343010e-002
         vertex -4.478467e-002 3.429000e-002 4.400306e-002
      endloop
   endfacet
   facet normal 2.305519e-001 0.000000e+000 9.730600e-001
      outer loop
         vertex -4.264634e-002 -3.429000e-002 4.343010e-002
         vertex -4.478467e-002 3.429000e-002 4.400306e-002
         vertex -4.478467e-002 -3.429000e-002 4.400306e-002
      endloop
   endfacet
   facet normal 1.161583e-001 0.000000e+000 9.932307e-001
      outer loop
         vertex -4.478467e-002 -3.429000e-002 4.400306e-002
         vertex -4.478467e-002 3.429000e-002 4.400306e-002
         vertex -4.699000e-002 3.429000e-002 4.419600e-002
      endloop
   endfacet
   facet normal 5.807913e-002 0.000000e+000 9.983119e-001
      outer loop
         vertex -4.478467e-002 -3.429000e-002 4.400306e-002
         vertex -4.699000e-002 3.429000e-002 4.419600e-002
         vertex -4.699000e-002 -3.429000e-002 4.419600e-002
      endloop
   endfacet
   facet normal 0.000000e+000 0.000000e+000 1.000000e+000
      outer loop
         vertex -1.676400e-001 3.429000e-002 4.419600e-002
         vertex -1.676400e-001 -3.429000e-002 4.419600e-002
         vertex -4.699000e-002 3.429000e-002 4.419600e-002
      endloop
   endfacet
   facet normal 0.000000e+000 0.000000e+000 1.000000e+000
      outer loop
         vertex -4.699000e-002 3.429000e-002 4.419600e-002
         vertex -1.676400e-001 -3.429000e-002 4.419600e-002
         vertex -4.699000e-002 -3.429000e-002 4.419600e-002
      endloop
   endfacet
   facet normal -5.807913e-002 0.000000e+000 9.983119e-001
      outer loop
         vertex -1.676400e-001 -3.429000e-002 4.419600e-002
         vertex -1.676400e-001 3.429000e-002 4.419600e-002
         vertex -1.716096e-001 3.429000e-002 4.384870e-002
      endloop
   endfacet
   facet normal -1.161583e-001 0.000000e+000 9.932307e-001
      outer loop
         vertex -1.676400e-001 -3.429000e-002 4.419600e-002
         vertex -1.716096e-001 3.429000e-002 4.384870e-002
         vertex -1.716096e-001 -3.429000e-002 4.384870e-002
      endloop
   endfacet
   facet normal -2.305519e-001 0.000000e+000 9.730600e-001
      outer loop
         vertex -1.716096e-001 -3.429000e-002 4.384870e-002
         vertex -1.716096e-001 3.429000e-002 4.384870e-002
         vertex -1.754586e-001 3.429000e-002 4.281737e-002
      endloop
   endfacet
   facet normal -2.868663e-001 0.000000e+000 9.579706e-001
      outer loop
         vertex -1.716096e-001 -3.429000e-002 4.384870e-002
         vertex -1.754586e-001 3.429000e-002 4.281737e-002
         vertex -1.754586e-001 -3.429000e-002 4.281737e-002
      endloop
   endfacet
   facet normal -3.960194e-001 0.000000e+000 9.182422e-001
      outer loop
         vertex -1.754586e-001 -3.429000e-002 4.281737e-002
         vertex -1.754586e-001 3.429000e-002 4.281737e-002
         vertex -1.790700e-001 3.429000e-002 4.113334e-002
      endloop
   endfacet
   facet normal -4.488580e-001 0.000000e+000 8.936031e-001
      outer loop
         vertex -1.754586e-001 -3.429000e-002 4.281737e-002
         vertex -1.790700e-001 3.429000e-002 4.113334e-002
         vertex -1.790700e-001 -3.429000e-002 4.113334e-002
      endloop
   endfacet
   facet normal -5.494540e-001 0.000000e+000 8.355240e-001
      outer loop
         vertex -1.790700e-001 -3.429000e-002 4.113334e-002
         vertex -1.790700e-001 3.429000e-002 4.113334e-002
         vertex -1.823341e-001 3.429000e-002 3.884777e-002
      endloop
   endfacet
   facet normal -5.972114e-001 0.000000e+000 8.020838e-001
      outer loop
         vertex -1.790700e-001 -3.429000e-002 4.113334e-002
         vertex -1.823341e-001 3.429000e-002 3.884777e-002
         vertex -1.823341e-001 -3.429000e-002 3.884777e-002
      endloop
   endfacet
   facet normal -6.861938e-001 0.000000e+000 7.274188e-001
      outer loop
         vertex -1.823341e-001 -3.429000e-002 3.884777e-002
         vertex -1.823341e-001 3.429000e-002 3.884777e-002
         vertex -1.851518e-001 3.429000e-002 3.603012e-002
      endloop
   endfacet
   facet normal -7.274188e-001 0.000000e+000 6.861938e-001
      outer loop
         vertex -1.823341e-001 -3.429000e-002 3.884777e-002
         vertex -1.851518e-001 3.429000e-002 3.603012e-002
         vertex -1.851518e-001 -3.429000e-002 3.603012e-002
      endloop
   endfacet
   facet normal -8.020838e-001 0.000000e+000 5.972114e-001
      outer loop
         vertex -1.851518e-001 -3.429000e-002 3.603012e-002
         vertex -1.851518e-001 3.429000e-002 3.603012e-002
         vertex -1.874373e-001 3.429000e-002 3.276600e-002
      endloop
   endfacet
   facet normal -8.355240e-001 0.000000e+000 5.494540e-001
      outer loop
         vertex -1.851518e-001 -3.429000e-002 3.603012e-002
         vertex -1.874373e-001 3.429000e-002 3.276600e-002
         vertex -1.874373e-001 -3.429000e-002 3.276600e-002
      endloop
   endfacet
   facet normal -8.936031e-001 0.000000e+000 4.488580e-001
      outer loop
         vertex -1.874373e-001 -3.429000e-002 3.276600e-002
         vertex -1.874373e-001 3.429000e-002 3.276600e-002
         vertex -1.891214e-001 3.429000e-002 2.915458e-002
      endloop
   endfacet
   facet normal -9.182422e-001 0.000000e+000 3.960194e-001
      outer loop
         vertex -1.874373e-001 -3.429000e-002 3.276600e-002
         vertex -1.891214e-001 3.429000e-002 2.915458e-002
         vertex -1.891214e-001 -3.429000e-002 2.915458e-002
      endloop
   endfacet
   facet normal -9.579706e-001 0.000000e+000 2.868663e-001
      outer loop
         vertex -1.891214e-001 -3.429000e-002 2.915458e-002
         vertex -1.891214e-001 3.429000e-002 2.915458e-002
         vertex -1.901527e-001 3.429000e-002 2.530560e-002
      endloop
   endfacet
   facet normal -9.730600e-001 0.000000e+000 2.305519e-001
      outer loop
         vertex -1.891214e-001 -3.429000e-002 2.915458e-002
         vertex -1.901527e-001 3.429000e-002 2.530560e-002
         vertex -1.901527e-001 -3.429000e-002 2.530560e-002
      endloop
   endfacet
   facet normal -9.932307e-001 0.000000e+000 1.161583e-001
      outer loop
         vertex -1.901527e-001 -3.429000e-002 2.530560e-002
         vertex -1.901527e-001 3.429000e-002 2.530560e-002
         vertex -1.905000e-001 3.429000e-002 2.133600e-002
      endloop
   endfacet
   facet normal -9.983119e-001 0.000000e+000 5.807913e-002
      outer loop
         vertex -1.901527e-001 -3.429000e-002 2.530560e-002
         vertex -1.905000e-001 3.429000e-002 2.133600e-002
         vertex -1.905000e-001 -3.429000e-002 2.133600e-002
      endloop
   endfacet
   facet normal -1.000000e+000 0.000000e+000 0.000000e+000
      outer loop
         vertex -1.905000e-001 3.429000e-002 -1.168400e-002
         vertex -1.905000e-001 -3.429000e-002 -1.168400e-002
         vertex -1.905000e-001 3.429000e-002 2.133600e-002
      endloop
   endfacet
   facet normal -1.000000e+000 0.000000e+000 0.000000e+000
      outer loop
         vertex -1.905000e-001 3.429000e-002 2.133600e-002
         vertex -1.905000e-001 -3.429000e-002 -1.168400e-002
         vertex -1.905000e-001 -3.429000e-002 2.133600e-002
      endloop
   endfacet
   facet normal -9.983119e-001 0.000000e+000 -5.807913e-002
      outer loop
         vertex -1.905000e-001 -3.429000e-002 -1.168400e-002
         vertex -1.905000e-001 3.429000e-002 -1.168400e-002
         vertex -1.901527e-001 3.429000e-002 -1.565360e-002
      endloop
   endfacet
   facet normal -9.932307e-001 0.000000e+000 -1.161583e-001
      outer loop
         vertex -1.905000e-001 -3.429000e-002 -1.168400e-002
         vertex -1.901527e-001 3.429000e-002 -1.565360e-002
         vertex -1.901527e-001 -3.429000e-002 -1.565360e-002
      endloop
   endfacet
   facet normal -9.730600e-001 0.000000e+000 -2.305519e-001
      outer loop
         vertex -1.901527e-001 -3.429000e-002 -1.565360e-002
         vertex -1.901527e-001 3.429000e-002 -1.565360e-002
         vertex -1.891214e-001 3.429000e-002 -1.950258e-002
      endloop
   endfacet
   facet normal -9.579706e-001 0.000000e+000 -2.868663e-001
      outer loop
         vertex -1.901527e-001 -3.429000e-002 -1.565360e-002
         vertex -1.891214e-001 3.429000e-002 -1.950258e-002
         vertex -1.891214e-001 -3.429000e-002 -1.950258e-002
      endloop
   endfacet
   facet normal -9.182422e-001 0.000000e+000 -3.960194e-001
      outer loop
         vertex -1.891214e-001 -3.429000e-002 -1.950258e-002
         vertex -1.891214e-001 3.429000e-002 -1.950258e-002
         vertex -1.874373e-001 3.429000e-002 -2.311400e-002
      endloop
   endfacet
   facet normal -8.936031e-001 0.000000e+000 -4.488580e-001
      outer loop
         vertex -1.891214e-001 -3.429000e-002 -1.950258e-002
         vertex -1.874373e-001 3.429000e-002 -2.311400e-002
         vertex -1.874373e-001 -3.429000e-002 -2.311400e-002
      endloop
   endfacet
   facet normal -8.355240e-001 0.000000e+000 -5.494540e-001
      outer loop
         vertex -1.874373e-001 -3.429000e-002 -2.311400e-002
         vertex -1.874373e-001 3.429000e-002 -2.311400e-002
         vertex -1.851518e-001 3.429000e-002 -2.637812e-002
      endloop
   endfacet
   facet normal -8.020838e-001 0.000000e+000 -5.972114e-001
      outer loop
         vertex -1.874373e-001 -3.429000e-002 -2.311400e-002
         vertex -1.851518e-001 3.429000e-002 -2.637812e-002
         vertex -1.851518e-001 -3.429000e-002 -2.637812e-002
      endloop
   endfacet
   facet normal -7.274188e-001 0.000000e+000 -6.861938e-001
      outer loop
         vertex -1.851518e-001 -3.429000e-002 -2.637812e-002
         vertex -1.851518e-001 3.429000e-002 -2.637812e-002
         vertex -1.823341e-001 3.429000e-002 -2.919578e-002
      endloop
   endfacet
   facet normal -6.861938e-001 0.000000e+000 -7.274188e-001
      outer loop
         vertex -1.851518e-001 -3.429000e-002 -2.637812e-002
         vertex -1.823341e-001 3.429000e-002 -2.919578e-002
         vertex -1.823341e-001 -3.429000e-002 -2.919578e-002
      endloop
   endfacet
   facet normal -5.972114e-001 0.000000e+000 -8.020838e-001
      outer loop
         vertex -1.823341e-001 -3.429000e-002 -2.919578e-002
         vertex -1.823341e-001 3.429000e-002 -2.919578e-002
         vertex -1.790700e-001 3.429000e-002 -3.148134e-002
      endloop
   endfacet
   facet normal -5.494540e-001 0.000000e+000 -8.355240e-001
      outer loop
         vertex -1.823341e-001 -3.429000e-002 -2.919578e-002
         vertex -1.790700e-001 3.429000e-002 -3.148134e-002
         vertex -1.790700e-001 -3.429000e-002 -3.148134e-002
      endloop
   endfacet
   facet normal -4.488580e-001 0.000000e+000 -8.936031e-001
      outer loop
         vertex -1.790700e-001 -3.429000e-002 -3.148134e-002
         vertex -1.790700e-001 3.429000e-002 -3.148134e-002
         vertex -1.754586e-001 3.429000e-002 -3.316537e-002
      endloop
   endfacet
   facet normal -3.960194e-001 0.000000e+000 -9.182422e-001
      outer loop
         vertex -1.790700e-001 -3.429000e-002 -3.148134e-002
         vertex -1.754586e-001 3.429000e-002 -3.316537e-002
         vertex -1.754586e-001 -3.429000e-002 -3.316537e-002
      endloop
   endfacet
   facet normal -2.868663e-001 0.000000e+000 -9.579706e-001
      outer loop
         vertex -1.754586e-001 -3.429000e-002 -3.316537e-002
         vertex -1.754586e-001 3.429000e-002 -3.316537e-002
         vertex -1.716096e-001 3.429000e-002 -3.419670e-002
      endloop
   endfacet
   facet normal -2.305519e-001 0.000000e+000 -9.730600e-001
      outer loop
         vertex -1.754586e-001 -3.429000e-002 -3.316537e-002
         vertex -1.716096e-001 3.429000e-002 -3.419670e-002
         vertex -1.716096e-001 -3.429000e-002 -3.419670e-002
      endloop
   endfacet
   facet normal -1.161583e-001 0.000000e+000 -9.932307e-001
      outer loop
         vertex -1.716096e-001 -3.429000e-002 -3.419670e-002
         vertex -1.716096e-001 3.429000e-002 -3.419670e-002
         vertex -1.676400e-001 3.429000e-002 -3.454400e-002
      endloop
   endfacet
   facet normal -5.807913e-002 0.000000e+000 -9.983119e-001
      outer loop
         vertex -1.716096e-001 -3.429000e-002 -3.419670e-002
         vertex -1.676400e-001 3.429000e-002 -3.454400e-002
         vertex -1.676400e-001 -3.429000e-002 -3.454400e-002
      endloop
   endfacet
   facet normal 0.000000e+000 0.000000e+000 -1.000000e+000
      outer loop
         vertex -1.536700e-001 3.429000e-002 -3.454400e-002
         vertex -1.536700e-001 -3.429000e-002 -3.454400e-002
         vertex -1.676400e-001 3.429000e-002 -3.454400e-002
      endloop
   endfacet
   facet normal 0.000000e+000 0.000000e+000 -1.000000e+000
      outer loop
         vertex -1.676400e-001 3.429000e-002 -3.454400e-002
         vertex -1.536700e-001 -3.429000e-002 -3.454400e-002
         vertex -1.676400e-001 -3.429000e-002 -3.454400e-002
      endloop
   endfacet
   facet normal -1.000000e+000 0.000000e+000 0.000000e+000
      outer loop
         vertex -1.536700e-001 3.429000e-002 -4.724400e-002
         vertex -1.536700e-001 -3.429000e-002 -4.724400e-002
         vertex -1.536700e-001 3.429000e-002 -3.454400e-002
      endloop
   endfacet
   facet normal -1.000000e+000 0.000000e+000 0.000000e+000
      outer loop
         vertex -1.536700e-001 3.429000e-002 -3.454400e-002
         vertex -1.536700e-001 -3.429000e-002 -4.724400e-002
         vertex -1.536700e-001 -3.429000e-002 -3.454400e-002
      endloop
   endfacet
   facet normal -9.983119e-001 0.000000e+000 -5.807913e-002
      outer loop
         vertex -1.536700e-001 -3.429000e-002 -4.724400e-002
         vertex -1.536700e-001 3.429000e-002 -4.724400e-002
         vertex -1.534771e-001 3.429000e-002 -4.944933e-002
      endloop
   endfacet
   facet normal -9.932307e-001 0.000000e+000 -1.161583e-001
      outer loop
         vertex -1.536700e-001 -3.429000e-002 -4.724400e-002
         vertex -1.534771e-001 3.429000e-002 -4.944933e-002
         vertex -1.534771e-001 -3.429000e-002 -4.944933e-002
      endloop
   endfacet
   facet normal -9.730600e-001 0.000000e+000 -2.305519e-001
      outer loop
         vertex -1.534771e-001 -3.429000e-002 -4.944933e-002
         vertex -1.534771e-001 3.429000e-002 -4.944933e-002
         vertex -1.529041e-001 3.429000e-002 -5.158766e-002
      endloop
   endfacet
   facet normal -9.579706e-001 0.000000e+000 -2.868663e-001
      outer loop
         vertex -1.534771e-001 -3.429000e-002 -4.944933e-002
         vertex -1.529041e-001 3.429000e-002 -5.158766e-002
         vertex -1.529041e-001 -3.429000e-002 -5.158766e-002
      endloop
   endfacet
   facet normal -9.182422e-001 0.000000e+000 -3.960194e-001
      outer loop
         vertex -1.529041e-001 -3.429000e-002 -5.158766e-002
         vertex -1.529041e-001 3.429000e-002 -5.158766e-002
         vertex -1.519685e-001 3.429000e-002 -5.359400e-002
      endloop
   endfacet
   facet normal -8.936031e-001 0.000000e+000 -4.488580e-001
      outer loop
         vertex -1.529041e-001 -3.429000e-002 -5.158766e-002
         vertex -1.519685e-001 3.429000e-002 -5.359400e-002
         vertex -1.519685e-001 -3.429000e-002 -5.359400e-002
      endloop
   endfacet
   facet normal -8.355240e-001 0.000000e+000 -5.494540e-001
      outer loop
         vertex -1.519685e-001 -3.429000e-002 -5.359400e-002
         vertex -1.519685e-001 3.429000e-002 -5.359400e-002
         vertex -1.506988e-001 3.429000e-002 -5.540740e-002
      endloop
   endfacet
   facet normal -8.020838e-001 0.000000e+000 -5.972114e-001
      outer loop
         vertex -1.519685e-001 -3.429000e-002 -5.359400e-002
         vertex -1.506988e-001 3.429000e-002 -5.540740e-002
         vertex -1.506988e-001 -3.429000e-002 -5.540740e-002
      endloop
   endfacet
   facet normal -7.274188e-001 0.000000e+000 -6.861938e-001
      outer loop
         vertex -1.506988e-001 -3.429000e-002 -5.540740e-002
         vertex -1.506988e-001 3.429000e-002 -5.540740e-002
         vertex -1.491334e-001 3.429000e-002 -5.697276e-002
      endloop
   endfacet
   facet normal -6.861938e-001 0.000000e+000 -7.274188e-001
      outer loop
         vertex -1.506988e-001 -3.429000e-002 -5.540740e-002
         vertex -1.491334e-001 3.429000e-002 -5.697276e-002
         vertex -1.491334e-001 -3.429000e-002 -5.697276e-002
      endloop
   endfacet
   facet normal -5.972114e-001 0.000000e+000 -8.020838e-001
      outer loop
         vertex -1.491334e-001 -3.429000e-002 -5.697276e-002
         vertex -1.491334e-001 3.429000e-002 -5.697276e-002
         vertex -1.473200e-001 3.429000e-002 -5.824252e-002
      endloop
   endfacet
   facet normal -5.494540e-001 0.000000e+000 -8.355240e-001
      outer loop
         vertex -1.491334e-001 -3.429000e-002 -5.697276e-002
         vertex -1.473200e-001 3.429000e-002 -5.824252e-002
         vertex -1.473200e-001 -3.429000e-002 -5.824252e-002
      endloop
   endfacet
   facet normal -4.488580e-001 0.000000e+000 -8.936031e-001
      outer loop
         vertex -1.473200e-001 -3.429000e-002 -5.824252e-002
         vertex -1.473200e-001 3.429000e-002 -5.824252e-002
         vertex -1.453137e-001 3.429000e-002 -5.917810e-002
      endloop
   endfacet
   facet normal -3.960194e-001 0.000000e+000 -9.182422e-001
      outer loop
         vertex -1.473200e-001 -3.429000e-002 -5.824252e-002
         vertex -1.453137e-001 3.429000e-002 -5.917810e-002
         vertex -1.453137e-001 -3.429000e-002 -5.917810e-002
      endloop
   endfacet
   facet normal -2.868663e-001 0.000000e+000 -9.579706e-001
      outer loop
         vertex -1.453137e-001 -3.429000e-002 -5.917810e-002
         vertex -1.453137e-001 3.429000e-002 -5.917810e-002
         vertex -1.431753e-001 3.429000e-002 -5.975106e-002
      endloop
   endfacet
   facet normal -2.305519e-001 0.000000e+000 -9.730600e-001
      outer loop
         vertex -1.453137e-001 -3.429000e-002 -5.917810e-002
         vertex -1.431753e-001 3.429000e-002 -5.975106e-002
         vertex -1.431753e-001 -3.429000e-002 -5.975106e-002
      endloop
   endfacet
   facet normal -1.161583e-001 0.000000e+000 -9.932307e-001
      outer loop
         vertex -1.431753e-001 -3.429000e-002 -5.975106e-002
         vertex -1.431753e-001 3.429000e-002 -5.975106e-002
         vertex -1.409700e-001 3.429000e-002 -5.994400e-002
      endloop
   endfacet
   facet normal -5.807913e-002 0.000000e+000 -9.983119e-001
      outer loop
         vertex -1.431753e-001 -3.429000e-002 -5.975106e-002
         vertex -1.409700e-001 3.429000e-002 -5.994400e-002
         vertex -1.409700e-001 -3.429000e-002 -5.994400e-002
      endloop
   endfacet
   facet normal -7.383373e-017 0.000000e+000 -1.000000e+000
      outer loop
         vertex -4.699000e-002 3.429000e-002 -5.994400e-002
         vertex -4.699000e-002 -3.429000e-002 -5.994400e-002
         vertex -1.409700e-001 3.429000e-002 -5.994400e-002
      endloop
   endfacet
   facet normal -7.383373e-017 0.000000e+000 -1.000000e+000
      outer loop
         vertex -1.409700e-001 3.429000e-002 -5.994400e-002
         vertex -4.699000e-002 -3.429000e-002 -5.994400e-002
         vertex -1.409700e-001 -3.429000e-002 -5.994400e-002
      endloop
   endfacet
   facet normal 5.807913e-002 0.000000e+000 -9.983119e-001
      outer loop
         vertex -4.699000e-002 -3.429000e-002 -5.994400e-002
         vertex -4.699000e-002 3.429000e-002 -5.994400e-002
         vertex -4.478467e-002 3.429000e-002 -5.975106e-002
      endloop
   endfacet
   facet normal 1.161583e-001 0.000000e+000 -9.932307e-001
      outer loop
         vertex -4.699000e-002 -3.429000e-002 -5.994400e-002
         vertex -4.478467e-002 3.429000e-002 -5.975106e-002
         vertex -4.478467e-002 -3.429000e-002 -5.975106e-002
      endloop
   endfacet
   facet normal 2.305519e-001 0.000000e+000 -9.730600e-001
      outer loop
         vertex -4.478467e-002 -3.429000e-002 -5.975106e-002
         vertex -4.478467e-002 3.429000e-002 -5.975106e-002
         vertex -4.264634e-002 3.429000e-002 -5.917810e-002
      endloop
   endfacet
   facet normal 2.868663e-001 0.000000e+000 -9.579706e-001
      outer loop
         vertex -4.478467e-002 -3.429000e-002 -5.975106e-002
         vertex -4.264634e-002 3.429000e-002 -5.917810e-002
         vertex -4.264634e-002 -3.429000e-002 -5.917810e-002
      endloop
   endfacet
   facet normal 3.960194e-001 0.000000e+000 -9.182422e-001
      outer loop
         vertex -4.264634e-002 -3.429000e-002 -5.917810e-002
         vertex -4.264634e-002 3.429000e-002 -5.917810e-002
         vertex -4.064000e-002 3.429000e-002 -5.824252e-002
      endloop
   endfacet
   facet normal 4.488580e-001 0.000000e+000 -8.936031e-001
      outer loop
         vertex -4.264634e-002 -3.429000e-002 -5.917810e-002
         vertex -4.064000e-002 3.429000e-002 -5.824252e-002
         vertex -4.064000e-002 -3.429000e-002 -5.824252e-002
      endloop
   endfacet
   facet normal 5.494540e-001 0.000000e+000 -8.355240e-001
      outer loop
         vertex -4.064000e-002 -3.429000e-002 -5.824252e-002
         vertex -4.064000e-002 3.429000e-002 -5.824252e-002
         vertex -3.882660e-002 3.429000e-002 -5.697276e-002
      endloop
   endfacet
   facet normal 5.972114e-001 0.000000e+000 -8.020838e-001
      outer loop
         vertex -4.064000e-002 -3.429000e-002 -5.824252e-002
         vertex -3.882660e-002 3.429000e-002 -5.697276e-002
         vertex -3.882660e-002 -3.429000e-002 -5.697276e-002
      endloop
   endfacet
   facet normal 6.861938e-001 0.000000e+000 -7.274188e-001
      outer loop
         vertex -3.882660e-002 -3.429000e-002 -5.697276e-002
         vertex -3.882660e-002 3.429000e-002 -5.697276e-002
         vertex -3.726124e-002 3.429000e-002 -5.540740e-002
      endloop
   endfacet
   facet normal 7.274188e-001 0.000000e+000 -6.861938e-001
      outer loop
         vertex -3.882660e-002 -3.429000e-002 -5.697276e-002
         vertex -3.726124e-002 3.429000e-002 -5.540740e-002
         vertex -3.726124e-002 -3.429000e-002 -5.540740e-002
      endloop
   endfacet
   facet normal 8.020838e-001 0.000000e+000 -5.972114e-001
      outer loop
         vertex -3.726124e-002 -3.429000e-002 -5.540740e-002
         vertex -3.726124e-002 3.429000e-002 -5.540740e-002
         vertex -3.599148e-002 3.429000e-002 -5.359400e-002
      endloop
   endfacet
   facet normal 8.355240e-001 0.000000e+000 -5.494540e-001
      outer loop
         vertex -3.726124e-002 -3.429000e-002 -5.540740e-002
         vertex -3.599148e-002 3.429000e-002 -5.359400e-002
         vertex -3.599148e-002 -3.429000e-002 -5.359400e-002
      endloop
   endfacet
   facet normal 8.936031e-001 0.000000e+000 -4.488580e-001
      outer loop
         vertex -3.599148e-002 -3.429000e-002 -5.359400e-002
         vertex -3.599148e-002 3.429000e-002 -5.359400e-002
         vertex -3.505590e-002 3.429000e-002 -5.158766e-002
      endloop
   endfacet
   facet normal 9.182422e-001 0.000000e+000 -3.960194e-001
      outer loop
         vertex -3.599148e-002 -3.429000e-002 -5.359400e-002
         vertex -3.505590e-002 3.429000e-002 -5.158766e-002
         vertex -3.505590e-002 -3.429000e-002 -5.158766e-002
      endloop
   endfacet
   facet normal 9.579706e-001 0.000000e+000 -2.868663e-001
      outer loop
         vertex -3.505590e-002 -3.429000e-002 -5.158766e-002
         vertex -3.505590e-002 3.429000e-002 -5.158766e-002
         vertex -3.448294e-002 3.429000e-002 -4.944933e-002
      endloop
   endfacet
   facet normal 9.730600e-001 0.000000e+000 -2.305519e-001
      outer loop
         vertex -3.505590e-002 -3.429000e-002 -5.158766e-002
         vertex -3.448294e-002 3.429000e-002 -4.944933e-002
         vertex -3.448294e-002 -3.429000e-002 -4.944933e-002
      endloop
   endfacet
   facet normal 9.932307e-001 0.000000e+000 -1.161583e-001
      outer loop
         vertex -3.448294e-002 -3.429000e-002 -4.944933e-002
         vertex -3.448294e-002 3.429000e-002 -4.944933e-002
         vertex -3.429000e-002 3.429000e-002 -4.724400e-002
      endloop
   endfacet
   facet normal 9.983119e-001 0.000000e+000 -5.807913e-002
      outer loop
         vertex -3.448294e-002 -3.429000e-002 -4.944933e-002
         vertex -3.429000e-002 3.429000e-002 -4.724400e-002
         vertex -3.429000e-002 -3.429000e-002 -4.724400e-002
      endloop
   endfacet
   facet normal 1.000000e+000 0.000000e+000 0.000000e+000
      outer loop
         vertex -3.429000e-002 3.429000e-002 -1.270000e-002
         vertex -3.429000e-002 -3.429000e-002 -1.270000e-002
         vertex -3.429000e-002 3.429000e-002 -4.724400e-002
      endloop
   endfacet
   facet normal 1.000000e+000 0.000000e+000 0.000000e+000
      outer loop
         vertex -3.429000e-002 3.429000e-002 -4.724400e-002
         vertex -3.429000e-002 -3.429000e-002 -1.270000e-002
         vertex -3.429000e-002 -3.429000e-002 -4.724400e-002
      endloop
   endfacet
   facet normal 0.000000e+000 0.000000e+000 -1.000000e+000
      outer loop
         vertex -3.429000e-002 -3.429000e-002 -1.270000e-002
         vertex -3.429000e-002 3.429000e-002 -1.270000e-002
         vertex 6.938894e-018 -3.429000e-002 -1.270000e-002
      endloop
   endfacet
   facet normal 0.000000e+000 0.000000e+000 -1.000000e+000
      outer loop
         vertex 6.938894e-018 -3.429000e-002 -1.270000e-002
         vertex -3.429000e-002 3.429000e-002 -1.270000e-002
         vertex 0.000000e+000 3.429000e-002 -1.270000e-002
      endloop
   endfacet
   facet normal 0.000000e+000 0.000000e+000 -1.000000e+000
      outer loop
         vertex 3.324074e-002 8.417698e-003 -1.270000e-002
         vertex 3.417288e-002 2.831646e-003 -1.270000e-002
         vertex 0.000000e+000 3.429000e-002 -1.270000e-002
      endloop
   endfacet
   facet normal 0.000000e+000 0.000000e+000 -1.000000e+000
      outer loop
         vertex 0.000000e+000 3.429000e-002 -1.270000e-002
         vertex 3.417288e-002 2.831646e-003 -1.270000e-002
         vertex 3.417288e-002 -2.831646e-003 -1.270000e-002
      endloop
   endfacet
   facet normal 0.000000e+000 0.000000e+000 -1.000000e+000
      outer loop
         vertex 3.417288e-002 -2.831646e-003 -1.270000e-002
         vertex 3.324074e-002 -8.417698e-003 -1.270000e-002
         vertex 0.000000e+000 3.429000e-002 -1.270000e-002
      endloop
   endfacet
   facet normal 0.000000e+000 0.000000e+000 -1.000000e+000
      outer loop
         vertex 0.000000e+000 3.429000e-002 -1.270000e-002
         vertex 3.324074e-002 -8.417698e-003 -1.270000e-002
         vertex 3.140187e-002 -1.377414e-002 -1.270000e-002
      endloop
   endfacet
   facet normal 0.000000e+000 0.000000e+000 -1.000000e+000
      outer loop
         vertex 0.000000e+000 3.429000e-002 -1.270000e-002
         vertex 3.140187e-002 -1.377414e-002 -1.270000e-002
         vertex 2.870644e-002 -1.875485e-002 -1.270000e-002
      endloop
   endfacet
   facet normal 0.000000e+000 0.000000e+000 -1.000000e+000
      outer loop
         vertex 2.870644e-002 -1.875485e-002 -1.270000e-002
         vertex 2.522797e-002 -2.322398e-002 -1.270000e-002
         vertex 0.000000e+000 3.429000e-002 -1.270000e-002
      endloop
   endfacet
   facet normal 0.000000e+000 0.000000e+000 -1.000000e+000
      outer loop
         vertex 0.000000e+000 3.429000e-002 -1.270000e-002
         vertex 2.522797e-002 -2.322398e-002 -1.270000e-002
         vertex 2.106135e-002 -2.705963e-002 -1.270000e-002
      endloop
   endfacet
   facet normal 0.000000e+000 0.000000e+000 -1.000000e+000
      outer loop
         vertex 0.000000e+000 3.429000e-002 -1.270000e-002
         vertex 2.106135e-002 -2.705963e-002 -1.270000e-002
         vertex 1.632024e-002 -3.015715e-002 -1.270000e-002
      endloop
   endfacet
   facet normal 0.000000e+000 0.000000e+000 -1.000000e+000
      outer loop
         vertex 1.113394e-002 3.243207e-002 -1.270000e-002
         vertex 1.632024e-002 3.015715e-002 -1.270000e-002
         vertex 3.140187e-002 1.377414e-002 -1.270000e-002
      endloop
   endfacet
   facet normal 0.000000e+000 0.000000e+000 -1.000000e+000
      outer loop
         vertex 3.140187e-002 1.377414e-002 -1.270000e-002
         vertex 1.632024e-002 3.015715e-002 -1.270000e-002
         vertex 2.106135e-002 2.705963e-002 -1.270000e-002
      endloop
   endfacet
   facet normal 0.000000e+000 0.000000e+000 -1.000000e+000
      outer loop
         vertex 3.140187e-002 1.377414e-002 -1.270000e-002
         vertex 2.106135e-002 2.705963e-002 -1.270000e-002
         vertex 2.870644e-002 1.875485e-002 -1.270000e-002
      endloop
   endfacet
   facet normal 0.000000e+000 0.000000e+000 -1.000000e+000
      outer loop
         vertex 2.870644e-002 1.875485e-002 -1.270000e-002
         vertex 2.106135e-002 2.705963e-002 -1.270000e-002
         vertex 2.522797e-002 2.322398e-002 -1.270000e-002
      endloop
   endfacet
   facet normal 0.000000e+000 0.000000e+000 -1.000000e+000
      outer loop
         vertex 1.632024e-002 -3.015715e-002 -1.270000e-002
         vertex 1.113394e-002 -3.243207e-002 -1.270000e-002
         vertex 0.000000e+000 3.429000e-002 -1.270000e-002
      endloop
   endfacet
   facet normal 0.000000e+000 0.000000e+000 -1.000000e+000
      outer loop
         vertex 0.000000e+000 3.429000e-002 -1.270000e-002
         vertex 1.113394e-002 -3.243207e-002 -1.270000e-002
         vertex 5.643948e-003 -3.382233e-002 -1.270000e-002
      endloop
   endfacet
   facet normal 0.000000e+000 0.000000e+000 -1.000000e+000
      outer loop
         vertex 0.000000e+000 3.429000e-002 -1.270000e-002
         vertex 5.643948e-003 -3.382233e-002 -1.270000e-002
         vertex 6.938894e-018 -3.429000e-002 -1.270000e-002
      endloop
   endfacet
   facet normal 0.000000e+000 0.000000e+000 -1.000000e+000
      outer loop
         vertex 3.324074e-002 8.417698e-003 -1.270000e-002
         vertex 0.000000e+000 3.429000e-002 -1.270000e-002
         vertex 3.140187e-002 1.377414e-002 -1.270000e-002
      endloop
   endfacet
   facet normal 0.000000e+000 0.000000e+000 -1.000000e+000
      outer loop
         vertex 3.140187e-002 1.377414e-002 -1.270000e-002
         vertex 0.000000e+000 3.429000e-002 -1.270000e-002
         vertex 5.643948e-003 3.382233e-002 -1.270000e-002
      endloop
   endfacet
   facet normal 0.000000e+000 0.000000e+000 -1.000000e+000
      outer loop
         vertex 3.140187e-002 1.377414e-002 -1.270000e-002
         vertex 5.643948e-003 3.382233e-002 -1.270000e-002
         vertex 1.113394e-002 3.243207e-002 -1.270000e-002
      endloop
   endfacet
   facet normal 0.000000e+000 0.000000e+000 1.000000e+000
      outer loop
         vertex -3.429000e-002 3.429000e-002 1.270000e-002
         vertex -3.429000e-002 -3.429000e-002 1.270000e-002
         vertex 0.000000e+000 3.429000e-002 1.270000e-002
      endloop
   endfacet
   facet normal 0.000000e+000 0.000000e+000 1.000000e+000
      outer loop
         vertex 0.000000e+000 3.429000e-002 1.270000e-002
         vertex -3.429000e-002 -3.429000e-002 1.270000e-002
         vertex -6.938894e-018 -3.429000e-002 1.270000e-002
      endloop
   endfacet
   facet normal 0.000000e+000 0.000000e+000 1.000000e+000
      outer loop
         vertex 1.632024e-002 -3.015715e-002 1.270000e-002
         vertex 2.522797e-002 2.322398e-002 1.270000e-002
         vertex 1.113394e-002 -3.243207e-002 1.270000e-002
      endloop
   endfacet
   facet normal 0.000000e+000 0.000000e+000 1.000000e+000
      outer loop
         vertex 1.113394e-002 -3.243207e-002 1.270000e-002
         vertex 2.522797e-002 2.322398e-002 1.270000e-002
         vertex 5.643948e-003 -3.382233e-002 1.270000e-002
      endloop
   endfacet
   facet normal 0.000000e+000 0.000000e+000 1.000000e+000
      outer loop
         vertex 5.643948e-003 -3.382233e-002 1.270000e-002
         vertex 2.522797e-002 2.322398e-002 1.270000e-002
         vertex -6.938894e-018 -3.429000e-002 1.270000e-002
      endloop
   endfacet
   facet normal 0.000000e+000 0.000000e+000 1.000000e+000
      outer loop
         vertex -6.938894e-018 -3.429000e-002 1.270000e-002
         vertex 2.522797e-002 2.322398e-002 1.270000e-002
         vertex 2.106135e-002 2.705963e-002 1.270000e-002
      endloop
   endfacet
   facet normal 0.000000e+000 0.000000e+000 1.000000e+000
      outer loop
         vertex -6.938894e-018 -3.429000e-002 1.270000e-002
         vertex 2.106135e-002 2.705963e-002 1.270000e-002
         vertex 1.632024e-002 3.015715e-002 1.270000e-002
      endloop
   endfacet
   facet normal 0.000000e+000 0.000000e+000 1.000000e+000
      outer loop
         vertex 1.632024e-002 3.015715e-002 1.270000e-002
         vertex 1.113394e-002 3.243207e-002 1.270000e-002
         vertex -6.938894e-018 -3.429000e-002 1.270000e-002
      endloop
   endfacet
   facet normal 0.000000e+000 0.000000e+000 1.000000e+000
      outer loop
         vertex -6.938894e-018 -3.429000e-002 1.270000e-002
         vertex 1.113394e-002 3.243207e-002 1.270000e-002
         vertex 5.643948e-003 3.382233e-002 1.270000e-002
      endloop
   endfacet
   facet normal 0.000000e+000 0.000000e+000 1.000000e+000
      outer loop
         vertex -6.938894e-018 -3.429000e-002 1.270000e-002
         vertex 5.643948e-003 3.382233e-002 1.270000e-002
         vertex 0.000000e+000 3.429000e-002 1.270000e-002
      endloop
   endfacet
   facet normal 0.000000e+000 0.000000e+000 1.000000e+000
      outer loop
         vertex 2.870644e-002 -1.875485e-002 1.270000e-002
         vertex 3.140187e-002 -1.377414e-002 1.270000e-002
         vertex 3.324074e-002 -8.417698e-003 1.270000e-002
      endloop
   endfacet
   facet normal 0.000000e+000 0.000000e+000 1.000000e+000
      outer loop
         vertex 3.417288e-002 2.831646e-003 1.270000e-002
         vertex 3.324074e-002 8.417698e-003 1.270000e-002
         vertex 2.522797e-002 -2.322398e-002 1.270000e-002
      endloop
   endfacet
   facet normal 0.000000e+000 0.000000e+000 1.000000e+000
      outer loop
         vertex 2.522797e-002 -2.322398e-002 1.270000e-002
         vertex 3.324074e-002 8.417698e-003 1.270000e-002
         vertex 3.140187e-002 1.377414e-002 1.270000e-002
      endloop
   endfacet
   facet normal 0.000000e+000 0.000000e+000 1.000000e+000
      outer loop
         vertex 1.632024e-002 -3.015715e-002 1.270000e-002
         vertex 2.106135e-002 -2.705963e-002 1.270000e-002
         vertex 2.522797e-002 2.322398e-002 1.270000e-002
      endloop
   endfacet
   facet normal 0.000000e+000 0.000000e+000 1.000000e+000
      outer loop
         vertex 2.522797e-002 2.322398e-002 1.270000e-002
         vertex 2.106135e-002 -2.705963e-002 1.270000e-002
         vertex 2.522797e-002 -2.322398e-002 1.270000e-002
      endloop
   endfacet
   facet normal 0.000000e+000 0.000000e+000 1.000000e+000
      outer loop
         vertex 2.522797e-002 2.322398e-002 1.270000e-002
         vertex 2.522797e-002 -2.322398e-002 1.270000e-002
         vertex 2.870644e-002 1.875485e-002 1.270000e-002
      endloop
   endfacet
   facet normal 0.000000e+000 0.000000e+000 1.000000e+000
      outer loop
         vertex 2.870644e-002 1.875485e-002 1.270000e-002
         vertex 2.522797e-002 -2.322398e-002 1.270000e-002
         vertex 3.140187e-002 1.377414e-002 1.270000e-002
      endloop
   endfacet
   facet normal 0.000000e+000 0.000000e+000 1.000000e+000
      outer loop
         vertex 2.870644e-002 -1.875485e-002 1.270000e-002
         vertex 3.324074e-002 -8.417698e-003 1.270000e-002
         vertex 2.522797e-002 -2.322398e-002 1.270000e-002
      endloop
   endfacet
   facet normal 0.000000e+000 0.000000e+000 1.000000e+000
      outer loop
         vertex 2.522797e-002 -2.322398e-002 1.270000e-002
         vertex 3.324074e-002 -8.417698e-003 1.270000e-002
         vertex 3.417288e-002 -2.831646e-003 1.270000e-002
      endloop
   endfacet
   facet normal 0.000000e+000 0.000000e+000 1.000000e+000
      outer loop
         vertex 2.522797e-002 -2.322398e-002 1.270000e-002
         vertex 3.417288e-002 -2.831646e-003 1.270000e-002
         vertex 3.417288e-002 2.831646e-003 1.270000e-002
      endloop
   endfacet
   facet normal 0.000000e+000 -1.000000e+000 0.000000e+000
      outer loop
         vertex 6.938894e-018 -3.429000e-002 -1.270000e-002
         vertex 6.938894e-018 -3.429000e-002 1.270000e-002
         vertex -3.429000e-002 -3.429000e-002 -1.270000e-002
      endloop
   endfacet
   facet normal 0.000000e+000 -1.000000e+000 0.000000e+000
      outer loop
         vertex -3.429000e-002 -3.429000e-002 -1.270000e-002
         vertex 6.938894e-018 -3.429000e-002 1.270000e-002
         vertex -3.429000e-002 -3.429000e-002 1.270000e-002
      endloop
   endfacet
   facet normal 0.000000e+000 -1.000000e+000 0.000000e+000
      outer loop
         vertex -1.905000e-001 -3.429000e-002 2.133600e-002
         vertex -1.905000e-001 -3.429000e-002 -1.168400e-002
         vertex -1.676400e-001 -3.429000e-002 -3.454400e-002
      endloop
   endfacet
   facet normal 0.000000e+000 -1.000000e+000 0.000000e+000
      outer loop
         vertex -1.676400e-001 -3.429000e-002 -3.454400e-002
         vertex -1.905000e-001 -3.429000e-002 -1.168400e-002
         vertex -1.901527e-001 -3.429000e-002 -1.565360e-002
      endloop
   endfacet
   facet normal 0.000000e+000 -1.000000e+000 0.000000e+000
      outer loop
         vertex -4.064000e-002 -3.429000e-002 4.249452e-002
         vertex -4.264634e-002 -3.429000e-002 4.343010e-002
         vertex -1.536700e-001 -3.429000e-002 -3.454400e-002
      endloop
   endfacet
   facet normal 0.000000e+000 -1.000000e+000 0.000000e+000
      outer loop
         vertex -1.851518e-001 -3.429000e-002 3.603012e-002
         vertex -1.874373e-001 -3.429000e-002 3.276600e-002
         vertex -1.676400e-001 -3.429000e-002 4.419600e-002
      endloop
   endfacet
   facet normal 0.000000e+000 -1.000000e+000 0.000000e+000
      outer loop
         vertex -4.264634e-002 -3.429000e-002 4.343010e-002
         vertex -4.478467e-002 -3.429000e-002 4.400306e-002
         vertex -1.536700e-001 -3.429000e-002 -3.454400e-002
      endloop
   endfacet
   facet normal 0.000000e+000 -1.000000e+000 0.000000e+000
      outer loop
         vertex -1.536700e-001 -3.429000e-002 -3.454400e-002
         vertex -4.478467e-002 -3.429000e-002 4.400306e-002
         vertex -4.699000e-002 -3.429000e-002 4.419600e-002
      endloop
   endfacet
   facet normal 0.000000e+000 -1.000000e+000 0.000000e+000
      outer loop
         vertex -1.536700e-001 -3.429000e-002 -3.454400e-002
         vertex -4.699000e-002 -3.429000e-002 4.419600e-002
         vertex -1.676400e-001 -3.429000e-002 -3.454400e-002
      endloop
   endfacet
   facet normal 0.000000e+000 -1.000000e+000 0.000000e+000
      outer loop
         vertex -1.676400e-001 -3.429000e-002 -3.454400e-002
         vertex -4.699000e-002 -3.429000e-002 4.419600e-002
         vertex -1.676400e-001 -3.429000e-002 4.419600e-002
      endloop
   endfacet
   facet normal 0.000000e+000 -1.000000e+000 0.000000e+000
      outer loop
         vertex -1.676400e-001 -3.429000e-002 -3.454400e-002
         vertex -1.676400e-001 -3.429000e-002 4.419600e-002
         vertex -1.905000e-001 -3.429000e-002 2.133600e-002
      endloop
   endfacet
   facet normal 0.000000e+000 -1.000000e+000 0.000000e+000
      outer loop
         vertex -3.429000e-002 -3.429000e-002 1.270000e-002
         vertex -1.536700e-001 -3.429000e-002 -4.724400e-002
         vertex -1.534771e-001 -3.429000e-002 -4.944933e-002
      endloop
   endfacet
   facet normal 0.000000e+000 -1.000000e+000 0.000000e+000
      outer loop
         vertex -1.506988e-001 -3.429000e-002 -5.540740e-002
         vertex -1.491334e-001 -3.429000e-002 -5.697276e-002
         vertex -3.429000e-002 -3.429000e-002 1.270000e-002
      endloop
   endfacet
   facet normal 0.000000e+000 -1.000000e+000 0.000000e+000
      outer loop
         vertex -3.429000e-002 -3.429000e-002 1.270000e-002
         vertex -1.491334e-001 -3.429000e-002 -5.697276e-002
         vertex -1.473200e-001 -3.429000e-002 -5.824252e-002
      endloop
   endfacet
   facet normal 0.000000e+000 -1.000000e+000 0.000000e+000
      outer loop
         vertex -3.429000e-002 -3.429000e-002 1.270000e-002
         vertex -1.473200e-001 -3.429000e-002 -5.824252e-002
         vertex -1.453137e-001 -3.429000e-002 -5.917810e-002
      endloop
   endfacet
   facet normal 0.000000e+000 -1.000000e+000 0.000000e+000
      outer loop
         vertex -1.453137e-001 -3.429000e-002 -5.917810e-002
         vertex -1.431753e-001 -3.429000e-002 -5.975106e-002
         vertex -3.429000e-002 -3.429000e-002 1.270000e-002
      endloop
   endfacet
   facet normal 0.000000e+000 -1.000000e+000 0.000000e+000
      outer loop
         vertex -3.429000e-002 -3.429000e-002 1.270000e-002
         vertex -1.431753e-001 -3.429000e-002 -5.975106e-002
         vertex -1.409700e-001 -3.429000e-002 -5.994400e-002
      endloop
   endfacet
   facet normal 0.000000e+000 -1.000000e+000 0.000000e+000
      outer loop
         vertex -3.429000e-002 -3.429000e-002 1.270000e-002
         vertex -1.409700e-001 -3.429000e-002 -5.994400e-002
         vertex -3.429000e-002 -3.429000e-002 -1.270000e-002
      endloop
   endfacet
   facet normal 0.000000e+000 -1.000000e+000 0.000000e+000
      outer loop
         vertex -3.429000e-002 -3.429000e-002 -1.270000e-002
         vertex -1.409700e-001 -3.429000e-002 -5.994400e-002
         vertex -4.699000e-002 -3.429000e-002 -5.994400e-002
      endloop
   endfacet
   facet normal 0.000000e+000 -1.000000e+000 0.000000e+000
      outer loop
         vertex -3.429000e-002 -3.429000e-002 -1.270000e-002
         vertex -4.699000e-002 -3.429000e-002 -5.994400e-002
         vertex -3.429000e-002 -3.429000e-002 -4.724400e-002
      endloop
   endfacet
   facet normal 0.000000e+000 -1.000000e+000 0.000000e+000
      outer loop
         vertex -1.716096e-001 -3.429000e-002 4.384870e-002
         vertex -1.754586e-001 -3.429000e-002 4.281737e-002
         vertex -1.790700e-001 -3.429000e-002 4.113334e-002
      endloop
   endfacet
   facet normal 0.000000e+000 -1.000000e+000 0.000000e+000
      outer loop
         vertex -3.505590e-002 -3.429000e-002 3.583965e-002
         vertex -3.599148e-002 -3.429000e-002 3.784600e-002
         vertex -1.536700e-001 -3.429000e-002 -3.454400e-002
      endloop
   endfacet
   facet normal 0.000000e+000 -1.000000e+000 0.000000e+000
      outer loop
         vertex -1.534771e-001 -3.429000e-002 -4.944933e-002
         vertex -1.529041e-001 -3.429000e-002 -5.158766e-002
         vertex -3.429000e-002 -3.429000e-002 1.270000e-002
      endloop
   endfacet
   facet normal 0.000000e+000 -1.000000e+000 0.000000e+000
      outer loop
         vertex -3.429000e-002 -3.429000e-002 1.270000e-002
         vertex -1.529041e-001 -3.429000e-002 -5.158766e-002
         vertex -1.519685e-001 -3.429000e-002 -5.359400e-002
      endloop
   endfacet
   facet normal 0.000000e+000 -1.000000e+000 0.000000e+000
      outer loop
         vertex -3.429000e-002 -3.429000e-002 1.270000e-002
         vertex -1.519685e-001 -3.429000e-002 -5.359400e-002
         vertex -1.506988e-001 -3.429000e-002 -5.540740e-002
      endloop
   endfacet
   facet normal 0.000000e+000 -1.000000e+000 0.000000e+000
      outer loop
         vertex -4.699000e-002 -3.429000e-002 -5.994400e-002
         vertex -4.478467e-002 -3.429000e-002 -5.975106e-002
         vertex -3.429000e-002 -3.429000e-002 -4.724400e-002
      endloop
   endfacet
   facet normal 0.000000e+000 -1.000000e+000 0.000000e+000
      outer loop
         vertex -3.429000e-002 -3.429000e-002 -4.724400e-002
         vertex -4.478467e-002 -3.429000e-002 -5.975106e-002
         vertex -4.264634e-002 -3.429000e-002 -5.917810e-002
      endloop
   endfacet
   facet normal 0.000000e+000 -1.000000e+000 0.000000e+000
      outer loop
         vertex -3.429000e-002 -3.429000e-002 -4.724400e-002
         vertex -4.264634e-002 -3.429000e-002 -5.917810e-002
         vertex -4.064000e-002 -3.429000e-002 -5.824252e-002
      endloop
   endfacet
   facet normal 0.000000e+000 -1.000000e+000 0.000000e+000
      outer loop
         vertex -3.726124e-002 -3.429000e-002 -5.540740e-002
         vertex -3.599148e-002 -3.429000e-002 -5.359400e-002
         vertex -3.505590e-002 -3.429000e-002 -5.158766e-002
      endloop
   endfacet
   facet normal 0.000000e+000 -1.000000e+000 0.000000e+000
      outer loop
         vertex -1.874373e-001 -3.429000e-002 3.276600e-002
         vertex -1.891214e-001 -3.429000e-002 2.915458e-002
         vertex -1.676400e-001 -3.429000e-002 4.419600e-002
      endloop
   endfacet
   facet normal 0.000000e+000 -1.000000e+000 0.000000e+000
      outer loop
         vertex -1.676400e-001 -3.429000e-002 4.419600e-002
         vertex -1.891214e-001 -3.429000e-002 2.915458e-002
         vertex -1.901527e-001 -3.429000e-002 2.530560e-002
      endloop
   endfacet
   facet normal 0.000000e+000 -1.000000e+000 0.000000e+000
      outer loop
         vertex -1.676400e-001 -3.429000e-002 4.419600e-002
         vertex -1.901527e-001 -3.429000e-002 2.530560e-002
         vertex -1.905000e-001 -3.429000e-002 2.133600e-002
      endloop
   endfacet
   facet normal 0.000000e+000 -1.000000e+000 0.000000e+000
      outer loop
         vertex -1.901527e-001 -3.429000e-002 -1.565360e-002
         vertex -1.891214e-001 -3.429000e-002 -1.950258e-002
         vertex -1.676400e-001 -3.429000e-002 -3.454400e-002
      endloop
   endfacet
   facet normal 0.000000e+000 -1.000000e+000 0.000000e+000
      outer loop
         vertex -1.676400e-001 -3.429000e-002 -3.454400e-002
         vertex -1.891214e-001 -3.429000e-002 -1.950258e-002
         vertex -1.874373e-001 -3.429000e-002 -2.311400e-002
      endloop
   endfacet
   facet normal 0.000000e+000 -1.000000e+000 0.000000e+000
      outer loop
         vertex -1.676400e-001 -3.429000e-002 -3.454400e-002
         vertex -1.874373e-001 -3.429000e-002 -2.311400e-002
         vertex -1.851518e-001 -3.429000e-002 -2.637812e-002
      endloop
   endfacet
   facet normal 0.000000e+000 -1.000000e+000 0.000000e+000
      outer loop
         vertex -1.851518e-001 -3.429000e-002 -2.637812e-002
         vertex -1.823341e-001 -3.429000e-002 -2.919578e-002
         vertex -1.790700e-001 -3.429000e-002 -3.148134e-002
      endloop
   endfacet
   facet normal 0.000000e+000 -1.000000e+000 0.000000e+000
      outer loop
         vertex -3.505590e-002 -3.429000e-002 3.583965e-002
         vertex -1.536700e-001 -3.429000e-002 -3.454400e-002
         vertex -3.448294e-002 -3.429000e-002 3.370133e-002
      endloop
   endfacet
   facet normal 0.000000e+000 -1.000000e+000 0.000000e+000
      outer loop
         vertex -3.599148e-002 -3.429000e-002 3.784600e-002
         vertex -3.726124e-002 -3.429000e-002 3.965940e-002
         vertex -1.536700e-001 -3.429000e-002 -3.454400e-002
      endloop
   endfacet
   facet normal 0.000000e+000 -1.000000e+000 0.000000e+000
      outer loop
         vertex -1.536700e-001 -3.429000e-002 -3.454400e-002
         vertex -3.726124e-002 -3.429000e-002 3.965940e-002
         vertex -3.882660e-002 -3.429000e-002 4.122476e-002
      endloop
   endfacet
   facet normal 0.000000e+000 -1.000000e+000 0.000000e+000
      outer loop
         vertex -1.536700e-001 -3.429000e-002 -3.454400e-002
         vertex -3.882660e-002 -3.429000e-002 4.122476e-002
         vertex -4.064000e-002 -3.429000e-002 4.249452e-002
      endloop
   endfacet
   facet normal 0.000000e+000 -1.000000e+000 0.000000e+000
      outer loop
         vertex -4.064000e-002 -3.429000e-002 -5.824252e-002
         vertex -3.882660e-002 -3.429000e-002 -5.697276e-002
         vertex -3.429000e-002 -3.429000e-002 -4.724400e-002
      endloop
   endfacet
   facet normal 0.000000e+000 -1.000000e+000 0.000000e+000
      outer loop
         vertex -3.429000e-002 -3.429000e-002 -4.724400e-002
         vertex -3.882660e-002 -3.429000e-002 -5.697276e-002
         vertex -3.726124e-002 -3.429000e-002 -5.540740e-002
      endloop
   endfacet
   facet normal 0.000000e+000 -1.000000e+000 0.000000e+000
      outer loop
         vertex -3.429000e-002 -3.429000e-002 -4.724400e-002
         vertex -3.726124e-002 -3.429000e-002 -5.540740e-002
         vertex -3.448294e-002 -3.429000e-002 -4.944933e-002
      endloop
   endfacet
   facet normal 0.000000e+000 -1.000000e+000 0.000000e+000
      outer loop
         vertex -3.448294e-002 -3.429000e-002 -4.944933e-002
         vertex -3.726124e-002 -3.429000e-002 -5.540740e-002
         vertex -3.505590e-002 -3.429000e-002 -5.158766e-002
      endloop
   endfacet
   facet normal 0.000000e+000 -1.000000e+000 0.000000e+000
      outer loop
         vertex -1.716096e-001 -3.429000e-002 4.384870e-002
         vertex -1.790700e-001 -3.429000e-002 4.113334e-002
         vertex -1.676400e-001 -3.429000e-002 4.419600e-002
      endloop
   endfacet
   facet normal 0.000000e+000 -1.000000e+000 0.000000e+000
      outer loop
         vertex -1.676400e-001 -3.429000e-002 4.419600e-002
         vertex -1.790700e-001 -3.429000e-002 4.113334e-002
         vertex -1.823341e-001 -3.429000e-002 3.884777e-002
      endloop
   endfacet
   facet normal 0.000000e+000 -1.000000e+000 0.000000e+000
      outer loop
         vertex -1.676400e-001 -3.429000e-002 4.419600e-002
         vertex -1.823341e-001 -3.429000e-002 3.884777e-002
         vertex -1.851518e-001 -3.429000e-002 3.603012e-002
      endloop
   endfacet
   facet normal 0.000000e+000 -1.000000e+000 0.000000e+000
      outer loop
         vertex -1.790700e-001 -3.429000e-002 -3.148134e-002
         vertex -1.754586e-001 -3.429000e-002 -3.316537e-002
         vertex -1.851518e-001 -3.429000e-002 -2.637812e-002
      endloop
   endfacet
   facet normal 0.000000e+000 -1.000000e+000 0.000000e+000
      outer loop
         vertex -1.851518e-001 -3.429000e-002 -2.637812e-002
         vertex -1.754586e-001 -3.429000e-002 -3.316537e-002
         vertex -1.716096e-001 -3.429000e-002 -3.419670e-002
      endloop
   endfacet
   facet normal 0.000000e+000 -1.000000e+000 0.000000e+000
      outer loop
         vertex -1.851518e-001 -3.429000e-002 -2.637812e-002
         vertex -1.716096e-001 -3.429000e-002 -3.419670e-002
         vertex -1.676400e-001 -3.429000e-002 -3.454400e-002
      endloop
   endfacet
   facet normal 0.000000e+000 -1.000000e+000 0.000000e+000
      outer loop
         vertex -1.536700e-001 -3.429000e-002 -4.724400e-002
         vertex -3.429000e-002 -3.429000e-002 1.270000e-002
         vertex -1.536700e-001 -3.429000e-002 -3.454400e-002
      endloop
   endfacet
   facet normal 0.000000e+000 -1.000000e+000 0.000000e+000
      outer loop
         vertex -1.536700e-001 -3.429000e-002 -3.454400e-002
         vertex -3.429000e-002 -3.429000e-002 1.270000e-002
         vertex -3.429000e-002 -3.429000e-002 3.149600e-002
      endloop
   endfacet
   facet normal 0.000000e+000 -1.000000e+000 0.000000e+000
      outer loop
         vertex -1.536700e-001 -3.429000e-002 -3.454400e-002
         vertex -3.429000e-002 -3.429000e-002 3.149600e-002
         vertex -3.448294e-002 -3.429000e-002 3.370133e-002
      endloop
   endfacet
   facet normal 0.000000e+000 1.000000e+000 0.000000e+000
      outer loop
         vertex 0.000000e+000 3.429000e-002 1.270000e-002
         vertex 0.000000e+000 3.429000e-002 -1.270000e-002
         vertex -3.429000e-002 3.429000e-002 1.270000e-002
      endloop
   endfacet
   facet normal 0.000000e+000 1.000000e+000 0.000000e+000
      outer loop
         vertex -3.429000e-002 3.429000e-002 1.270000e-002
         vertex 0.000000e+000 3.429000e-002 -1.270000e-002
         vertex -3.429000e-002 3.429000e-002 -1.270000e-002
      endloop
   endfacet
   facet normal 0.000000e+000 1.000000e+000 0.000000e+000
      outer loop
         vertex -3.429000e-002 3.429000e-002 -1.270000e-002
         vertex -1.905000e-001 3.429000e-002 -1.168400e-002
         vertex -1.905000e-001 3.429000e-002 2.133600e-002
      endloop
   endfacet
   facet normal 0.000000e+000 1.000000e+000 0.000000e+000
      outer loop
         vertex -1.676400e-001 3.429000e-002 -3.454400e-002
         vertex -1.905000e-001 3.429000e-002 -1.168400e-002
         vertex -1.536700e-001 3.429000e-002 -3.454400e-002
      endloop
   endfacet
   facet normal 0.000000e+000 1.000000e+000 0.000000e+000
      outer loop
         vertex -1.536700e-001 3.429000e-002 -3.454400e-002
         vertex -1.905000e-001 3.429000e-002 -1.168400e-002
         vertex -3.429000e-002 3.429000e-002 -1.270000e-002
      endloop
   endfacet
   facet normal 0.000000e+000 1.000000e+000 0.000000e+000
      outer loop
         vertex -1.536700e-001 3.429000e-002 -3.454400e-002
         vertex -3.429000e-002 3.429000e-002 -1.270000e-002
         vertex -1.536700e-001 3.429000e-002 -4.724400e-002
      endloop
   endfacet
   facet normal 0.000000e+000 1.000000e+000 0.000000e+000
      outer loop
         vertex -1.536700e-001 3.429000e-002 -4.724400e-002
         vertex -3.429000e-002 3.429000e-002 -1.270000e-002
         vertex -3.429000e-002 3.429000e-002 -4.724400e-002
      endloop
   endfacet
   facet normal 0.000000e+000 1.000000e+000 0.000000e+000
      outer loop
         vertex -1.790700e-001 3.429000e-002 -3.148134e-002
         vertex -1.823341e-001 3.429000e-002 -2.919578e-002
         vertex -1.851518e-001 3.429000e-002 -2.637812e-002
      endloop
   endfacet
   facet normal 0.000000e+000 1.000000e+000 0.000000e+000
      outer loop
         vertex -3.429000e-002 3.429000e-002 -1.270000e-002
         vertex -1.676400e-001 3.429000e-002 4.419600e-002
         vertex -3.429000e-002 3.429000e-002 1.270000e-002
      endloop
   endfacet
   facet normal 0.000000e+000 1.000000e+000 0.000000e+000
      outer loop
         vertex -3.429000e-002 3.429000e-002 1.270000e-002
         vertex -1.676400e-001 3.429000e-002 4.419600e-002
         vertex -4.699000e-002 3.429000e-002 4.419600e-002
      endloop
   endfacet
   facet normal 0.000000e+000 1.000000e+000 0.000000e+000
      outer loop
         vertex -3.429000e-002 3.429000e-002 1.270000e-002
         vertex -4.699000e-002 3.429000e-002 4.419600e-002
         vertex -3.429000e-002 3.429000e-002 3.149600e-002
      endloop
   endfacet
   facet normal 0.000000e+000 1.000000e+000 0.000000e+000
      outer loop
         vertex -3.429000e-002 3.429000e-002 3.149600e-002
         vertex -4.699000e-002 3.429000e-002 4.419600e-002
         vertex -4.478467e-002 3.429000e-002 4.400306e-002
      endloop
   endfacet
   facet normal 0.000000e+000 1.000000e+000 0.000000e+000
      outer loop
         vertex -3.429000e-002 3.429000e-002 3.149600e-002
         vertex -4.478467e-002 3.429000e-002 4.400306e-002
         vertex -4.264634e-002 3.429000e-002 4.343010e-002
      endloop
   endfacet
   facet normal 0.000000e+000 1.000000e+000 0.000000e+000
      outer loop
         vertex -1.905000e-001 3.429000e-002 2.133600e-002
         vertex -1.901527e-001 3.429000e-002 2.530560e-002
         vertex -3.429000e-002 3.429000e-002 -1.270000e-002
      endloop
   endfacet
   facet normal 0.000000e+000 1.000000e+000 0.000000e+000
      outer loop
         vertex -3.429000e-002 3.429000e-002 -1.270000e-002
         vertex -1.901527e-001 3.429000e-002 2.530560e-002
         vertex -1.891214e-001 3.429000e-002 2.915458e-002
      endloop
   endfacet
   facet normal 0.000000e+000 1.000000e+000 0.000000e+000
      outer loop
         vertex -3.429000e-002 3.429000e-002 -1.270000e-002
         vertex -1.891214e-001 3.429000e-002 2.915458e-002
         vertex -1.874373e-001 3.429000e-002 3.276600e-002
      endloop
   endfacet
   facet normal 0.000000e+000 1.000000e+000 0.000000e+000
      outer loop
         vertex -3.448294e-002 3.429000e-002 -4.944933e-002
         vertex -3.505590e-002 3.429000e-002 -5.158766e-002
         vertex -3.429000e-002 3.429000e-002 -4.724400e-002
      endloop
   endfacet
   facet normal 0.000000e+000 1.000000e+000 0.000000e+000
      outer loop
         vertex -3.429000e-002 3.429000e-002 -4.724400e-002
         vertex -3.505590e-002 3.429000e-002 -5.158766e-002
         vertex -3.599148e-002 3.429000e-002 -5.359400e-002
      endloop
   endfacet
   facet normal 0.000000e+000 1.000000e+000 0.000000e+000
      outer loop
         vertex -3.429000e-002 3.429000e-002 -4.724400e-002
         vertex -3.599148e-002 3.429000e-002 -5.359400e-002
         vertex -3.726124e-002 3.429000e-002 -5.540740e-002
      endloop
   endfacet
   facet normal 0.000000e+000 1.000000e+000 0.000000e+000
      outer loop
         vertex -3.726124e-002 3.429000e-002 -5.540740e-002
         vertex -3.882660e-002 3.429000e-002 -5.697276e-002
         vertex -3.429000e-002 3.429000e-002 -4.724400e-002
      endloop
   endfacet
   facet normal 0.000000e+000 1.000000e+000 0.000000e+000
      outer loop
         vertex -3.429000e-002 3.429000e-002 -4.724400e-002
         vertex -3.882660e-002 3.429000e-002 -5.697276e-002
         vertex -4.064000e-002 3.429000e-002 -5.824252e-002
      endloop
   endfacet
   facet normal 0.000000e+000 1.000000e+000 0.000000e+000
      outer loop
         vertex -3.429000e-002 3.429000e-002 -4.724400e-002
         vertex -4.064000e-002 3.429000e-002 -5.824252e-002
         vertex -4.264634e-002 3.429000e-002 -5.917810e-002
      endloop
   endfacet
   facet normal 0.000000e+000 1.000000e+000 0.000000e+000
      outer loop
         vertex -4.264634e-002 3.429000e-002 -5.917810e-002
         vertex -4.478467e-002 3.429000e-002 -5.975106e-002
         vertex -3.429000e-002 3.429000e-002 -4.724400e-002
      endloop
   endfacet
   facet normal 0.000000e+000 1.000000e+000 0.000000e+000
      outer loop
         vertex -3.429000e-002 3.429000e-002 -4.724400e-002
         vertex -4.478467e-002 3.429000e-002 -5.975106e-002
         vertex -4.699000e-002 3.429000e-002 -5.994400e-002
      endloop
   endfacet
   facet normal 0.000000e+000 1.000000e+000 0.000000e+000
      outer loop
         vertex -3.429000e-002 3.429000e-002 -4.724400e-002
         vertex -4.699000e-002 3.429000e-002 -5.994400e-002
         vertex -1.536700e-001 3.429000e-002 -4.724400e-002
      endloop
   endfacet
   facet normal 0.000000e+000 1.000000e+000 0.000000e+000
      outer loop
         vertex -1.536700e-001 3.429000e-002 -4.724400e-002
         vertex -4.699000e-002 3.429000e-002 -5.994400e-002
         vertex -1.409700e-001 3.429000e-002 -5.994400e-002
      endloop
   endfacet
   facet normal 0.000000e+000 1.000000e+000 0.000000e+000
      outer loop
         vertex -1.536700e-001 3.429000e-002 -4.724400e-002
         vertex -1.409700e-001 3.429000e-002 -5.994400e-002
         vertex -1.431753e-001 3.429000e-002 -5.975106e-002
      endloop
   endfacet
   facet normal 0.000000e+000 1.000000e+000 0.000000e+000
      outer loop
         vertex -1.431753e-001 3.429000e-002 -5.975106e-002
         vertex -1.453137e-001 3.429000e-002 -5.917810e-002
         vertex -1.536700e-001 3.429000e-002 -4.724400e-002
      endloop
   endfacet
   facet normal 0.000000e+000 1.000000e+000 0.000000e+000
      outer loop
         vertex -1.536700e-001 3.429000e-002 -4.724400e-002
         vertex -1.453137e-001 3.429000e-002 -5.917810e-002
         vertex -1.473200e-001 3.429000e-002 -5.824252e-002
      endloop
   endfacet
   facet normal 0.000000e+000 1.000000e+000 0.000000e+000
      outer loop
         vertex -1.536700e-001 3.429000e-002 -4.724400e-002
         vertex -1.473200e-001 3.429000e-002 -5.824252e-002
         vertex -1.491334e-001 3.429000e-002 -5.697276e-002
      endloop
   endfacet
   facet normal 0.000000e+000 1.000000e+000 0.000000e+000
      outer loop
         vertex -1.491334e-001 3.429000e-002 -5.697276e-002
         vertex -1.506988e-001 3.429000e-002 -5.540740e-002
         vertex -1.536700e-001 3.429000e-002 -4.724400e-002
      endloop
   endfacet
   facet normal 0.000000e+000 1.000000e+000 0.000000e+000
      outer loop
         vertex -1.536700e-001 3.429000e-002 -4.724400e-002
         vertex -1.506988e-001 3.429000e-002 -5.540740e-002
         vertex -1.519685e-001 3.429000e-002 -5.359400e-002
      endloop
   endfacet
   facet normal 0.000000e+000 1.000000e+000 0.000000e+000
      outer loop
         vertex -1.536700e-001 3.429000e-002 -4.724400e-002
         vertex -1.519685e-001 3.429000e-002 -5.359400e-002
         vertex -1.534771e-001 3.429000e-002 -4.944933e-002
      endloop
   endfacet
   facet normal 0.000000e+000 1.000000e+000 0.000000e+000
      outer loop
         vertex -1.534771e-001 3.429000e-002 -4.944933e-002
         vertex -1.519685e-001 3.429000e-002 -5.359400e-002
         vertex -1.529041e-001 3.429000e-002 -5.158766e-002
      endloop
   endfacet
   facet normal 0.000000e+000 1.000000e+000 0.000000e+000
      outer loop
         vertex -1.790700e-001 3.429000e-002 -3.148134e-002
         vertex -1.851518e-001 3.429000e-002 -2.637812e-002
         vertex -1.754586e-001 3.429000e-002 -3.316537e-002
      endloop
   endfacet
   facet normal 0.000000e+000 1.000000e+000 0.000000e+000
      outer loop
         vertex -1.874373e-001 3.429000e-002 -2.311400e-002
         vertex -1.891214e-001 3.429000e-002 -1.950258e-002
         vertex -1.676400e-001 3.429000e-002 -3.454400e-002
      endloop
   endfacet
   facet normal 0.000000e+000 1.000000e+000 0.000000e+000
      outer loop
         vertex -1.676400e-001 3.429000e-002 -3.454400e-002
         vertex -1.891214e-001 3.429000e-002 -1.950258e-002
         vertex -1.901527e-001 3.429000e-002 -1.565360e-002
      endloop
   endfacet
   facet normal 0.000000e+000 1.000000e+000 0.000000e+000
      outer loop
         vertex -1.676400e-001 3.429000e-002 -3.454400e-002
         vertex -1.901527e-001 3.429000e-002 -1.565360e-002
         vertex -1.905000e-001 3.429000e-002 -1.168400e-002
      endloop
   endfacet
   facet normal 0.000000e+000 1.000000e+000 0.000000e+000
      outer loop
         vertex -1.874373e-001 3.429000e-002 3.276600e-002
         vertex -1.851518e-001 3.429000e-002 3.603012e-002
         vertex -3.429000e-002 3.429000e-002 -1.270000e-002
      endloop
   endfacet
   facet normal 0.000000e+000 1.000000e+000 0.000000e+000
      outer loop
         vertex -3.429000e-002 3.429000e-002 -1.270000e-002
         vertex -1.851518e-001 3.429000e-002 3.603012e-002
         vertex -1.823341e-001 3.429000e-002 3.884777e-002
      endloop
   endfacet
   facet normal 0.000000e+000 1.000000e+000 0.000000e+000
      outer loop
         vertex -3.429000e-002 3.429000e-002 -1.270000e-002
         vertex -1.823341e-001 3.429000e-002 3.884777e-002
         vertex -1.790700e-001 3.429000e-002 4.113334e-002
      endloop
   endfacet
   facet normal 0.000000e+000 1.000000e+000 0.000000e+000
      outer loop
         vertex -1.790700e-001 3.429000e-002 4.113334e-002
         vertex -1.754586e-001 3.429000e-002 4.281737e-002
         vertex -3.429000e-002 3.429000e-002 -1.270000e-002
      endloop
   endfacet
   facet normal 0.000000e+000 1.000000e+000 0.000000e+000
      outer loop
         vertex -3.429000e-002 3.429000e-002 -1.270000e-002
         vertex -1.754586e-001 3.429000e-002 4.281737e-002
         vertex -1.716096e-001 3.429000e-002 4.384870e-002
      endloop
   endfacet
   facet normal 0.000000e+000 1.000000e+000 0.000000e+000
      outer loop
         vertex -3.429000e-002 3.429000e-002 -1.270000e-002
         vertex -1.716096e-001 3.429000e-002 4.384870e-002
         vertex -1.676400e-001 3.429000e-002 4.419600e-002
      endloop
   endfacet
   facet normal 0.000000e+000 1.000000e+000 0.000000e+000
      outer loop
         vertex -4.264634e-002 3.429000e-002 4.343010e-002
         vertex -4.064000e-002 3.429000e-002 4.249452e-002
         vertex -3.429000e-002 3.429000e-002 3.149600e-002
      endloop
   endfacet
   facet normal 0.000000e+000 1.000000e+000 0.000000e+000
      outer loop
         vertex -3.429000e-002 3.429000e-002 3.149600e-002
         vertex -4.064000e-002 3.429000e-002 4.249452e-002
         vertex -3.882660e-002 3.429000e-002 4.122476e-002
      endloop
   endfacet
   facet normal 0.000000e+000 1.000000e+000 0.000000e+000
      outer loop
         vertex -3.429000e-002 3.429000e-002 3.149600e-002
         vertex -3.882660e-002 3.429000e-002 4.122476e-002
         vertex -3.726124e-002 3.429000e-002 3.965940e-002
      endloop
   endfacet
   facet normal 0.000000e+000 1.000000e+000 0.000000e+000
      outer loop
         vertex -3.726124e-002 3.429000e-002 3.965940e-002
         vertex -3.599148e-002 3.429000e-002 3.784600e-002
         vertex -3.429000e-002 3.429000e-002 3.149600e-002
      endloop
   endfacet
   facet normal 0.000000e+000 1.000000e+000 0.000000e+000
      outer loop
         vertex -3.429000e-002 3.429000e-002 3.149600e-002
         vertex -3.599148e-002 3.429000e-002 3.784600e-002
         vertex -3.505590e-002 3.429000e-002 3.583965e-002
      endloop
   endfacet
   facet normal 0.000000e+000 1.000000e+000 0.000000e+000
      outer loop
         vertex -3.429000e-002 3.429000e-002 3.149600e-002
         vertex -3.505590e-002 3.429000e-002 3.583965e-002
         vertex -3.448294e-002 3.429000e-002 3.370133e-002
      endloop
   endfacet
   facet normal 0.000000e+000 1.000000e+000 0.000000e+000
      outer loop
         vertex -1.874373e-001 3.429000e-002 -2.311400e-002
         vertex -1.676400e-001 3.429000e-002 -3.454400e-002
         vertex -1.851518e-001 3.429000e-002 -2.637812e-002
      endloop
   endfacet
   facet normal 0.000000e+000 1.000000e+000 0.000000e+000
      outer loop
         vertex -1.851518e-001 3.429000e-002 -2.637812e-002
         vertex -1.676400e-001 3.429000e-002 -3.454400e-002
         vertex -1.716096e-001 3.429000e-002 -3.419670e-002
      endloop
   endfacet
   facet normal 0.000000e+000 1.000000e+000 0.000000e+000
      outer loop
         vertex -1.851518e-001 3.429000e-002 -2.637812e-002
         vertex -1.716096e-001 3.429000e-002 -3.419670e-002
         vertex -1.754586e-001 3.429000e-002 -3.316537e-002
      endloop
   endfacet
   facet normal 5.503191e-002 9.984846e-001 0.000000e+000
      outer loop
         vertex 1.049828e-017 3.429000e-002 -1.270000e-002
         vertex 1.049828e-017 3.429000e-002 1.270000e-002
         vertex 5.643948e-003 3.382233e-002 1.270000e-002
      endloop
   endfacet
   facet normal 1.100638e-001 9.939246e-001 0.000000e+000
      outer loop
         vertex 1.049828e-017 3.429000e-002 -1.270000e-002
         vertex 5.643948e-003 3.382233e-002 1.270000e-002
         vertex 5.643948e-003 3.382233e-002 -1.270000e-002
      endloop
   endfacet
   facet normal 2.186265e-001 9.758086e-001 0.000000e+000
      outer loop
         vertex 5.643948e-003 3.382233e-002 -1.270000e-002
         vertex 5.643948e-003 3.382233e-002 1.270000e-002
         vertex 1.113394e-002 3.243207e-002 1.270000e-002
      endloop
   endfacet
   facet normal 2.721573e-001 9.622528e-001 0.000000e+000
      outer loop
         vertex 5.643948e-003 3.382233e-002 -1.270000e-002
         vertex 1.113394e-002 3.243207e-002 1.270000e-002
         vertex 1.113394e-002 3.243207e-002 -1.270000e-002
      endloop
   endfacet
   facet normal 3.762575e-001 9.265151e-001 0.000000e+000
      outer loop
         vertex 1.113394e-002 3.243207e-002 -1.270000e-002
         vertex 1.113394e-002 3.243207e-002 1.270000e-002
         vertex 1.632024e-002 3.015715e-002 1.270000e-002
      endloop
   endfacet
   facet normal 4.268270e-001 9.043333e-001 0.000000e+000
      outer loop
         vertex 1.113394e-002 3.243207e-002 -1.270000e-002
         vertex 1.632024e-002 3.015715e-002 1.270000e-002
         vertex 1.632024e-002 3.015715e-002 -1.270000e-002
      endloop
   endfacet
   facet normal 5.236253e-001 8.519487e-001 0.000000e+000
      outer loop
         vertex 1.632024e-002 3.015715e-002 -1.270000e-002
         vertex 1.632024e-002 3.015715e-002 1.270000e-002
         vertex 2.106135e-002 2.705963e-002 1.270000e-002
      endloop
   endfacet
   facet normal 5.698540e-001 8.217459e-001 0.000000e+000
      outer loop
         vertex 1.632024e-002 3.015715e-002 -1.270000e-002
         vertex 2.106135e-002 2.705963e-002 1.270000e-002
         vertex 2.106135e-002 2.705963e-002 -1.270000e-002
      endloop
   endfacet
   facet normal 6.567098e-001 7.541434e-001 0.000000e+000
      outer loop
         vertex 2.106135e-002 2.705963e-002 -1.270000e-002
         vertex 2.106135e-002 2.705963e-002 1.270000e-002
         vertex 2.522797e-002 2.322398e-002 1.270000e-002
      endloop
   endfacet
   facet normal 6.973369e-001 7.167435e-001 0.000000e+000
      outer loop
         vertex 2.106135e-002 2.705963e-002 -1.270000e-002
         vertex 2.522797e-002 2.322398e-002 1.270000e-002
         vertex 2.522797e-002 2.322398e-002 -1.270000e-002
      endloop
   endfacet
   facet normal 7.718811e-001 6.357669e-001 0.000000e+000
      outer loop
         vertex 2.522797e-002 2.322398e-002 -1.270000e-002
         vertex 2.522797e-002 2.322398e-002 1.270000e-002
         vertex 2.870644e-002 1.875485e-002 1.270000e-002
      endloop
   endfacet
   facet normal 8.057982e-001 5.921901e-001 0.000000e+000
      outer loop
         vertex 2.522797e-002 2.322398e-002 -1.270000e-002
         vertex 2.870644e-002 1.875485e-002 1.270000e-002
         vertex 2.870644e-002 1.875485e-002 -1.270000e-002
      endloop
   endfacet
   facet normal 8.659974e-001 5.000484e-001 0.000000e+000
      outer loop
         vertex 2.870644e-002 1.875485e-002 -1.270000e-002
         vertex 2.870644e-002 1.875485e-002 1.270000e-002
         vertex 3.140187e-002 1.377414e-002 1.270000e-002
      endloop
   endfacet
   facet normal 8.922795e-001 4.514834e-001 0.000000e+000
      outer loop
         vertex 2.870644e-002 1.875485e-002 -1.270000e-002
         vertex 3.140187e-002 1.377414e-002 1.270000e-002
         vertex 3.140187e-002 1.377414e-002 -1.270000e-002
      endloop
   endfacet
   facet normal 9.364916e-001 3.506899e-001 0.000000e+000
      outer loop
         vertex 3.140187e-002 1.377414e-002 -1.270000e-002
         vertex 3.140187e-002 1.377414e-002 1.270000e-002
         vertex 3.324074e-002 8.417698e-003 1.270000e-002
      endloop
   endfacet
   facet normal 9.544217e-001 2.984614e-001 0.000000e+000
      outer loop
         vertex 3.140187e-002 1.377414e-002 -1.270000e-002
         vertex 3.324074e-002 8.417698e-003 1.270000e-002
         vertex 3.324074e-002 8.417698e-003 -1.270000e-002
      endloop
   endfacet
   facet normal 9.814408e-001 1.917655e-001 0.000000e+000
      outer loop
         vertex 3.324074e-002 8.417698e-003 -1.270000e-002
         vertex 3.324074e-002 8.417698e-003 1.270000e-002
         vertex 3.417288e-002 2.831646e-003 1.270000e-002
      endloop
   endfacet
   facet normal 9.905298e-001 1.372982e-001 0.000000e+000
      outer loop
         vertex 3.324074e-002 8.417698e-003 -1.270000e-002
         vertex 3.417288e-002 2.831646e-003 1.270000e-002
         vertex 3.417288e-002 2.831646e-003 -1.270000e-002
      endloop
   endfacet
   facet normal 9.996188e-001 2.761026e-002 0.000000e+000
      outer loop
         vertex 3.417288e-002 2.831646e-003 -1.270000e-002
         vertex 3.417288e-002 2.831646e-003 1.270000e-002
         vertex 3.417288e-002 -2.831646e-003 1.270000e-002
      endloop
   endfacet
   facet normal 9.996188e-001 -2.761026e-002 0.000000e+000
      outer loop
         vertex 3.417288e-002 2.831646e-003 -1.270000e-002
         vertex 3.417288e-002 -2.831646e-003 1.270000e-002
         vertex 3.417288e-002 -2.831646e-003 -1.270000e-002
      endloop
   endfacet
   facet normal 9.905298e-001 -1.372982e-001 0.000000e+000
      outer loop
         vertex 3.417288e-002 -2.831646e-003 -1.270000e-002
         vertex 3.417288e-002 -2.831646e-003 1.270000e-002
         vertex 3.324074e-002 -8.417698e-003 1.270000e-002
      endloop
   endfacet
   facet normal 9.814408e-001 -1.917655e-001 0.000000e+000
      outer loop
         vertex 3.417288e-002 -2.831646e-003 -1.270000e-002
         vertex 3.324074e-002 -8.417698e-003 1.270000e-002
         vertex 3.324074e-002 -8.417698e-003 -1.270000e-002
      endloop
   endfacet
   facet normal 9.544217e-001 -2.984614e-001 0.000000e+000
      outer loop
         vertex 3.324074e-002 -8.417698e-003 -1.270000e-002
         vertex 3.324074e-002 -8.417698e-003 1.270000e-002
         vertex 3.140187e-002 -1.377414e-002 1.270000e-002
      endloop
   endfacet
   facet normal 9.364916e-001 -3.506899e-001 0.000000e+000
      outer loop
         vertex 3.324074e-002 -8.417698e-003 -1.270000e-002
         vertex 3.140187e-002 -1.377414e-002 1.270000e-002
         vertex 3.140187e-002 -1.377414e-002 -1.270000e-002
      endloop
   endfacet
   facet normal 8.922795e-001 -4.514834e-001 0.000000e+000
      outer loop
         vertex 3.140187e-002 -1.377414e-002 -1.270000e-002
         vertex 3.140187e-002 -1.377414e-002 1.270000e-002
         vertex 2.870644e-002 -1.875485e-002 1.270000e-002
      endloop
   endfacet
   facet normal 8.659974e-001 -5.000484e-001 0.000000e+000
      outer loop
         vertex 3.140187e-002 -1.377414e-002 -1.270000e-002
         vertex 2.870644e-002 -1.875485e-002 1.270000e-002
         vertex 2.870644e-002 -1.875485e-002 -1.270000e-002
      endloop
   endfacet
   facet normal 8.057982e-001 -5.921901e-001 0.000000e+000
      outer loop
         vertex 2.870644e-002 -1.875485e-002 -1.270000e-002
         vertex 2.870644e-002 -1.875485e-002 1.270000e-002
         vertex 2.522797e-002 -2.322398e-002 1.270000e-002
      endloop
   endfacet
   facet normal 7.718811e-001 -6.357669e-001 0.000000e+000
      outer loop
         vertex 2.870644e-002 -1.875485e-002 -1.270000e-002
         vertex 2.522797e-002 -2.322398e-002 1.270000e-002
         vertex 2.522797e-002 -2.322398e-002 -1.270000e-002
      endloop
   endfacet
   facet normal 6.973369e-001 -7.167435e-001 0.000000e+000
      outer loop
         vertex 2.522797e-002 -2.322398e-002 -1.270000e-002
         vertex 2.522797e-002 -2.322398e-002 1.270000e-002
         vertex 2.106135e-002 -2.705963e-002 1.270000e-002
      endloop
   endfacet
   facet normal 6.567098e-001 -7.541434e-001 0.000000e+000
      outer loop
         vertex 2.522797e-002 -2.322398e-002 -1.270000e-002
         vertex 2.106135e-002 -2.705963e-002 1.270000e-002
         vertex 2.106135e-002 -2.705963e-002 -1.270000e-002
      endloop
   endfacet
   facet normal 5.698540e-001 -8.217459e-001 0.000000e+000
      outer loop
         vertex 2.106135e-002 -2.705963e-002 -1.270000e-002
         vertex 2.106135e-002 -2.705963e-002 1.270000e-002
         vertex 1.632024e-002 -3.015715e-002 1.270000e-002
      endloop
   endfacet
   facet normal 5.236253e-001 -8.519487e-001 0.000000e+000
      outer loop
         vertex 2.106135e-002 -2.705963e-002 -1.270000e-002
         vertex 1.632024e-002 -3.015715e-002 1.270000e-002
         vertex 1.632024e-002 -3.015715e-002 -1.270000e-002
      endloop
   endfacet
   facet normal 4.268270e-001 -9.043333e-001 0.000000e+000
      outer loop
         vertex 1.632024e-002 -3.015715e-002 -1.270000e-002
         vertex 1.632024e-002 -3.015715e-002 1.270000e-002
         vertex 1.113394e-002 -3.243207e-002 1.270000e-002
      endloop
   endfacet
   facet normal 3.762575e-001 -9.265151e-001 0.000000e+000
      outer loop
         vertex 1.632024e-002 -3.015715e-002 -1.270000e-002
         vertex 1.113394e-002 -3.243207e-002 1.270000e-002
         vertex 1.113394e-002 -3.243207e-002 -1.270000e-002
      endloop
   endfacet
   facet normal 2.721573e-001 -9.622528e-001 0.000000e+000
      outer loop
         vertex 1.113394e-002 -3.243207e-002 -1.270000e-002
         vertex 1.113394e-002 -3.243207e-002 1.270000e-002
         vertex 5.643948e-003 -3.382233e-002 1.270000e-002
      endloop
   endfacet
   facet normal 2.186265e-001 -9.758086e-001 0.000000e+000
      outer loop
         vertex 1.113394e-002 -3.243207e-002 -1.270000e-002
         vertex 5.643948e-003 -3.382233e-002 1.270000e-002
         vertex 5.643948e-003 -3.382233e-002 -1.270000e-002
      endloop
   endfacet
   facet normal 1.100638e-001 -9.939246e-001 0.000000e+000
      outer loop
         vertex 5.643948e-003 -3.382233e-002 -1.270000e-002
         vertex 5.643948e-003 -3.382233e-002 1.270000e-002
         vertex -6.298971e-018 -3.429000e-002 1.270000e-002
      endloop
   endfacet
   facet normal 5.503191e-002 -9.984846e-001 0.000000e+000
      outer loop
         vertex 5.643948e-003 -3.382233e-002 -1.270000e-002
         vertex -6.298971e-018 -3.429000e-002 1.270000e-002
         vertex -6.298971e-018 -3.429000e-002 -1.270000e-002
      endloop
   endfacet
endsolid